STARTFONT 2.3
FONT -FontForge-Hanalei-Book-R-Normal--28-280-72-72-P-141-ISO10646-1
SIZE 28 72 72  2
FONTBOUNDINGBOX 37 37 -2 -8
COMMENT "Generated by fontforge, http://fontforge.sourceforge.net"
COMMENT "Copyright (c) 2012 by Brian J. Bonislawsky DBA Astigmatic (AOETI) (astigma@astigmatic.com), with ReservedFont Name "Hanalei""
STARTPROPERTIES 40
FOUNDRY "FontForge"
FAMILY_NAME "Hanalei"
WEIGHT_NAME "Book"
SLANT "R"
SETWIDTH_NAME "Normal"
ADD_STYLE_NAME ""
PIXEL_SIZE 28
POINT_SIZE 280
RESOLUTION_X 72
RESOLUTION_Y 72
SPACING "P"
AVERAGE_WIDTH 141
CHARSET_REGISTRY "ISO10646"
CHARSET_ENCODING "1"
FONTNAME_REGISTRY ""
CHARSET_COLLECTIONS "ISO8859-2 ISO8859-9 ISO8859-4 ISO10646-1"
BITS_PER_PIXEL 2
FONT_NAME "Hanalei-Regular"
FACE_NAME "Hanalei"
COPYRIGHT "Copyright (c) 2012 by Brian J. Bonislawsky DBA Astigmatic (AOETI) (astigma@astigmatic.com), with ReservedFont Name "Hanalei""
FONT_VERSION "1.000"
FONT_ASCENT 22
FONT_DESCENT 6
UNDERLINE_POSITION -4
UNDERLINE_THICKNESS 1
X_HEIGHT 18
CAP_HEIGHT 18
RAW_ASCENT 799
RAW_DESCENT 200
NORM_SPACE 6
RELATIVE_WEIGHT 40
RELATIVE_SETWIDTH 50
SUPERSCRIPT_X 0
SUPERSCRIPT_Y 13
SUPERSCRIPT_SIZE 18
SUBSCRIPT_X 0
SUBSCRIPT_Y 3
SUBSCRIPT_SIZE 18
AVG_LOWERCASE_WIDTH 150
AVG_UPPERCASE_WIDTH 148
ENDPROPERTIES
CHARS 366
STARTCHAR space
ENCODING 32
SWIDTH 200 0
DWIDTH 6 0
BBX 1 1 0 0
BITMAP
00
ENDCHAR
STARTCHAR exclam
ENCODING 33
SWIDTH 257 0
DWIDTH 7 0
BBX 6 21 1 -1
BITMAP
0500
A580
8050
8080
8080
8080
8080
A980
8080
8080
8080
8080
8080
8080
2A00
0000
6A40
8140
8140
9640
1400
ENDCHAR
STARTCHAR quotedbl
ENCODING 34
SWIDTH 476 0
DWIDTH 13 0
BBX 12 12 1 9
BITMAP
190194
918519
808505
808508
808508
E98AA5
808905
808508
808508
808805
808806
6A42A8
ENDCHAR
STARTCHAR numbersign
ENCODING 35
SWIDTH 1076 0
DWIDTH 30 0
BBX 29 20 1 0
BITMAP
1A40029014040000
6078091826AEA900
5068080850080200
605808088008AB00
6055080890054140
50520808AAAA4140
A9559A4850804200
9164980850804200
5050980850814200
5090281480AA9A00
50A0281480895300
50640808AA480200
A969969850040200
8059060826A6AA00
5086021414040400
508241940A955000
808080A414155400
8050805824000800
8050818814001400
6A802BA40AAAA000
ENDCHAR
STARTCHAR dollar
ENCODING 36
SWIDTH 453 0
DWIDTH 13 0
BBX 12 26 0 -4
BITMAP
006A40
008080
008080
008050
0081A8
00AA42
168802
640502
5001A5
201A40
35A900
260A40
291464
025006
00A002
001D06
00AA5A
2A4852
50051A
500190
206A40
1A8140
008140
008140
009140
001900
ENDCHAR
STARTCHAR percent
ENCODING 37
SWIDTH 889 0
DWIDTH 25 0
BBX 25 20 0 0
BITMAP
04000000000000
15564068000000
2A009082400000
10916081000000
11592082000000
11442141000000
11442205000000
16482295000000
58582208000000
64082108A56400
195A8515900900
01010812080A00
0000095109A500
00000861085200
00000421085200
00001451044200
00002042598100
00001082808140
00002581806A00
00000500655800
ENDCHAR
STARTCHAR ampersand
ENCODING 38
SWIDTH 627 0
DWIDTH 18 0
BBX 18 22 0 -1
BITMAP
0014000000
0096A95400
01E9095800
0202094500
0602066500
0141A80C00
0080940800
0091602000
0069208000
0070214000
01A41A0000
0208090000
0505020240
180A29A980
6022818050
807A808020
8088505590
A648202900
8504701800
806A542000
26400A8000
0400000000
ENDCHAR
STARTCHAR quotesingle
ENCODING 39
SWIDTH 246 0
DWIDTH 7 0
BBX 5 12 1 9
BITMAP
1900
9180
8080
8080
8080
E980
8080
8080
8080
8080
8080
6A40
ENDCHAR
STARTCHAR parenleft
ENCODING 40
SWIDTH 387 0
DWIDTH 11 0
BBX 12 24 -1 -2
BITMAP
000100
0009A0
000814
002418
006020
008090
02A480
020540
090200
080900
201800
502000
243400
2E9800
080600
020180
015980
00A060
006024
002409
000802
000602
000258
000190
ENDCHAR
STARTCHAR parenright
ENCODING 41
SWIDTH 386 0
DWIDTH 11 0
BBX 11 24 0 -2
BITMAP
004000
0A6000
242000
201400
080800
050200
021A40
025080
008050
005020
002018
001408
001818
0026B4
008060
020080
066600
080A00
240900
602400
806000
808000
658000
060000
ENDCHAR
STARTCHAR asterisk
ENCODING 42
SWIDTH 517 0
DWIDTH 14 0
BBX 14 14 0 7
BITMAP
00010000
00198000
00148000
00148000
29148290
519AA820
50205020
1A902A90
00506000
00999400
02094900
08248200
06205600
01902400
ENDCHAR
STARTCHAR plus
ENCODING 43
SWIDTH 458 0
DWIDTH 13 0
BBX 13 12 0 3
BITMAP
006A4000
00808000
00808000
19A99900
20455200
50050140
50050200
25A5A600
15954400
00808000
00808000
002A0000
ENDCHAR
STARTCHAR comma
ENCODING 44
SWIDTH 228 0
DWIDTH 6 0
BBX 7 8 -1 -4
BITMAP
0290
0524
0808
2418
9060
8080
6140
1A00
ENDCHAR
STARTCHAR hyphen
ENCODING 45
SWIDTH 465 0
DWIDTH 13 0
BBX 13 6 0 6
BITMAP
1AAA5900
20055200
50050140
20050240
26AAAA00
04000000
ENDCHAR
STARTCHAR period
ENCODING 46
SWIDTH 202 0
DWIDTH 6 0
BBX 5 5 0 -1
BITMAP
2A80
5080
2080
2580
0500
ENDCHAR
STARTCHAR slash
ENCODING 47
SWIDTH 453 0
DWIDTH 13 0
BBX 12 19 0 0
BITMAP
0002A8
000206
000202
000905
001808
003914
002160
005020
008090
018080
034140
06A200
090600
080900
141800
602000
502000
242000
069000
ENDCHAR
STARTCHAR zero
ENCODING 48
SWIDTH 646 0
DWIDTH 18 0
BBX 19 21 0 0
BITMAP
0001000000
0009900000
0014290000
00201A0000
0090618000
0280806000
0661A01800
0806149900
14090A0200
6014060080
9A60014060
A0C0009014
8060026020
90090E0990
1806658A00
0624A05800
0192802400
0099008000
001C020000
0005080000
0001A40000
ENDCHAR
STARTCHAR one
ENCODING 49
SWIDTH 400 0
DWIDTH 11 0
BBX 12 21 -1 -1
BITMAP
000950
002A58
008805
0A0508
200508
501D08
205948
0A8E59
000808
000808
000808
000808
000948
000959
000808
000808
000808
000808
001808
000958
000150
ENDCHAR
STARTCHAR two
ENCODING 50
SWIDTH 502 0
DWIDTH 14 0
BBX 14 20 0 -1
BITMAP
006A9000
00826000
02008800
18064600
901A0180
80618060
60805050
1A00A590
00024960
001D0180
00220900
00805400
06006000
14028000
240A5640
281A5480
56A20080
60010080
26A5A980
04050100
ENDCHAR
STARTCHAR three
ENCODING 51
SWIDTH 456 0
DWIDTH 13 0
BBX 13 21 0 -1
BITMAP
04000000
26A55000
20056000
20002800
20002600
1AAA9200
00744900
00892000
06059000
18664000
14818000
09406400
02800A00
00686A40
006A4200
1A980140
54080200
90046900
501A4000
26900000
05000000
ENDCHAR
STARTCHAR four
ENCODING 52
SWIDTH 514 0
DWIDTH 14 0
BBX 15 21 -1 -1
BITMAP
00000500
0002B990
00051820
00080820
00241450
00906050
01A4A460
0205E560
05025050
18086060
201A6A58
60202008
24502008
06855AA4
00A56050
00005050
00005050
00005050
00008020
00006590
00001500
ENDCHAR
STARTCHAR five
ENCODING 53
SWIDTH 500 0
DWIDTH 14 0
BBX 14 20 0 0
BITMAP
00000100
1AABA940
20220080
20220080
20615580
206A4100
20600000
26650000
2856AA00
24021A80
14022090
09A56050
01056080
00002080
00002080
2AAEAA50
50080190
500400C0
50040140
2AAAAA00
ENDCHAR
STARTCHAR six
ENCODING 54
SWIDTH 520 0
DWIDTH 15 0
BBX 15 21 0 -1
BITMAP
00640000
00964000
00808000
01414000
02420000
02020000
06920000
09170000
08098000
08082400
08080A00
14180980
2A9A2068
20159908
2020A258
206A40A0
90500080
80500680
90906400
2AD64000
00280000
ENDCHAR
STARTCHAR seven
ENCODING 55
SWIDTH 423 0
DWIDTH 12 0
BBX 12 20 0 0
BITMAP
000004
6AAAA9
801402
801402
800147
6AAE6D
000808
002A48
002058
002024
002020
005050
00E480
008580
014080
020200
020200
080200
090500
02A900
ENDCHAR
STARTCHAR eight
ENCODING 56
SWIDTH 527 0
DWIDTH 15 0
BBX 15 20 0 -1
BITMAP
1AABAA90
20014020
20014A60
756564A0
29596020
08095050
05068080
02654200
01808200
01D06500
02601C00
02181500
08099200
141B0240
20218080
806A9020
90806024
29806074
066AAAE0
01400000
ENDCHAR
STARTCHAR nine
ENCODING 57
SWIDTH 500 0
DWIDTH 14 0
BBX 15 21 0 -1
BITMAP
00001000
00059900
01B90690
69140624
80080520
8005E450
90AA8080
AA52A540
94160540
18050200
06080900
01980800
00781400
00225400
00502000
00809000
01408000
02014000
02020000
01960000
00140000
ENDCHAR
STARTCHAR colon
ENCODING 58
SWIDTH 245 0
DWIDTH 7 0
BBX 5 16 1 -1
BITMAP
1500
9580
8040
8140
6A40
0000
0000
0000
0000
0000
0000
6A40
8040
4140
5640
1500
ENDCHAR
STARTCHAR semicolon
ENCODING 59
SWIDTH 270 0
DWIDTH 8 0
BBX 8 19 -1 -4
BITMAP
0054
0259
0205
0204
01A8
0000
0000
0000
0000
0000
0000
0190
0218
0505
0809
2020
5050
2480
0A40
ENDCHAR
STARTCHAR less
ENCODING 60
SWIDTH 445 0
DWIDTH 12 0
BBX 12 16 0 2
BITMAP
000040
0001A4
000609
007406
024806
290564
500180
201900
347000
6A4A00
500280
290829
018402
006805
000648
0000A0
ENDCHAR
STARTCHAR equal
ENCODING 61
SWIDTH 484 0
DWIDTH 14 0
BBX 12 12 1 4
BITMAP
6AAEA8
800805
800802
800405
6AAAA8
000000
000000
6AAEA8
800805
800802
800405
6AAAA8
ENDCHAR
STARTCHAR greater
ENCODING 62
SWIDTH 445 0
DWIDTH 12 0
BBX 11 16 1 2
BITMAP
040000
2A0000
919000
802800
906240
188064
024008
00A008
001C24
019298
068008
A480A4
801600
806800
524000
190000
ENDCHAR
STARTCHAR question
ENCODING 63
SWIDTH 455 0
DWIDTH 13 0
BBX 12 21 0 -1
BITMAP
090000
25A400
200780
50026A
240502
169402
001E83
00642A
01401A
064090
098240
056800
050800
080800
02A400
000000
06A400
081400
081400
096400
014000
ENDCHAR
STARTCHAR at
ENCODING 64
SWIDTH 812 0
DWIDTH 23 0
BBX 21 23 1 -2
BITMAP
050000000000
09AAAAEA9000
24020082A400
640100450400
5AAAAAAA0800
514504120800
515559565500
9550040A4500
955A95594100
815426588200
521452049640
511042089140
916142085140
A999ABAA6080
816402022040
521401022580
820AA9A55600
819400055900
814A50000000
6A0814000000
0A4408000000
001654000000
000050000000
ENDCHAR
STARTCHAR A
ENCODING 65
SWIDTH 507 0
DWIDTH 14 0
BBX 15 20 0 0
BITMAP
00640000
01964000
0140D000
01415400
02021400
02020800
0A920800
08160900
080AA600
080A0200
08094200
141497A0
2A5E9414
20148008
20208008
20205AE4
506AA050
80502020
90502020
2A801A80
ENDCHAR
STARTCHAR B
ENCODING 66
SWIDTH 533 0
DWIDTH 15 0
BBX 14 22 1 -1
BITMAP
06800000
18640000
A406D000
6400A900
690141A0
55A10020
509A4020
A951A890
906A0680
80A80180
90821900
5081A400
80864A40
A9780090
80964090
809AA0D0
81E91A60
A9020590
E0012900
A0068000
70640000
0A400000
ENDCHAR
STARTCHAR C
ENCODING 67
SWIDTH 515 0
DWIDTH 14 0
BBX 15 21 0 -1
BITMAP
02954000
0815AAA0
08008024
08008014
09654020
0949AAA0
0D480000
19580000
08080000
08140000
14140000
24140000
26940000
20200000
20200190
202AA920
90208014
50208014
2E8056A0
086A9400
06400000
ENDCHAR
STARTCHAR D
ENCODING 68
SWIDTH 520 0
DWIDTH 15 0
BBX 14 22 1 -1
BITMAP
00500000
1A600000
98080000
58060000
58019000
52403000
50909800
A9754600
91590190
80828020
90806060
50807590
80818920
A95A0090
806A4200
80A08800
80802400
80809000
80824000
80590000
6A940000
00600000
ENDCHAR
STARTCHAR E
ENCODING 69
SWIDTH 490 0
DWIDTH 14 0
BBX 13 20 1 0
BITMAP
1A450500
90AAA640
50520080
50820080
50955640
509A5500
A9500000
91500000
80AAA000
90802000
50802000
80942000
A9669000
80500000
80950000
809AAA00
80850200
80840140
80655200
6A955900
ENDCHAR
STARTCHAR F
ENCODING 70
SWIDTH 475 0
DWIDTH 13 0
BBX 13 20 1 0
BITMAP
1A450500
90AAA640
50520080
50820080
50955640
509A5500
A9500000
91500000
80AAA000
90802000
50802000
80942000
A9669000
80500000
80800000
80800000
80800000
80800000
80500000
6A800000
ENDCHAR
STARTCHAR G
ENCODING 71
SWIDTH 557 0
DWIDTH 16 0
BBX 16 21 0 -1
BITMAP
02954000
0815AAA0
08008024
08008014
09654020
0949AAA0
0D480000
19580000
08080190
08140918
14140808
24140804
26940808
20200998
20200908
202AA808
90208808
50208808
2E805809
086A96A4
06400000
ENDCHAR
STARTCHAR H
ENCODING 72
SWIDTH 611 0
DWIDTH 17 0
BBX 16 20 1 0
BITMAP
1A400A90
90902418
50502018
50802414
50801424
50801424
A9502554
90502554
80802020
90801428
508019A6
80916902
A9794502
80580416
808816A4
8096A420
80942020
80802014
80502024
6A801A90
ENDCHAR
STARTCHAR I
ENCODING 73
SWIDTH 266 0
DWIDTH 7 0
BBX 6 20 1 0
BITMAP
1A40
9090
5050
5080
5080
5080
A950
9050
8080
9080
5080
8080
A950
8050
8080
8080
8080
8080
8050
6A80
ENDCHAR
STARTCHAR J
ENCODING 74
SWIDTH 484 0
DWIDTH 14 0
BBX 14 21 -1 -1
BITMAP
00001A40
00006060
00005020
00002050
00002050
00005050
0000A950
00009050
00005050
01005080
1A805080
20505050
5024AA60
24099050
09169090
0290D080
01806080
00901850
00240850
00082A80
00069000
ENDCHAR
STARTCHAR K
ENCODING 75
SWIDTH 541 0
DWIDTH 15 0
BBX 15 20 1 0
BITMAP
1A400000
90900A80
50501860
50802014
50818024
50874090
A9599240
91641600
80A00800
90807000
5080A000
80A24800
A9560900
806D6600
80A34200
80820140
80818080
80808060
80508090
6A806A40
ENDCHAR
STARTCHAR L
ENCODING 76
SWIDTH 467 0
DWIDTH 13 0
BBX 13 20 1 0
BITMAP
1A400000
90900000
50500000
50800000
50800000
50800000
A9500000
90500000
80800000
90800000
50800000
80800000
A9500000
80500000
80900000
80AAAA00
80880180
80980080
80554140
6AA96A00
ENDCHAR
STARTCHAR M
ENCODING 77
SWIDTH 733 0
DWIDTH 21 0
BBX 21 20 0 0
BITMAP
01A400290000
024600918000
020240805000
02028080A000
020580816000
090882026000
0E8853A22000
081826061400
080A59079800
081C1D090800
14190C090800
2016080A0800
2A56068A0800
2062661A5500
202142224200
205082620200
505080914200
805080914240
805090914180
2A806A41AA40
ENDCHAR
STARTCHAR N
ENCODING 78
SWIDTH 598 0
DWIDTH 17 0
BBX 15 20 1 0
BITMAP
1A400690
90B41918
50580808
50880818
50850814
50820814
A9559A58
91649418
80809414
90906814
50A02814
80A40814
A9699A98
805D0518
80860214
80820154
808140A4
80808094
80508248
6A806EA0
ENDCHAR
STARTCHAR O
ENCODING 79
SWIDTH 612 0
DWIDTH 17 0
BBX 17 21 0 -1
BITMAP
0295400000
0815AAF800
0800802900
0800801800
0965402800
0949AAA500
0D48055600
19580A5600
0808050600
0814020600
1414020200
2414020200
269402A640
2020020200
2020426600
202AEA4B00
9020500740
5020500680
2E8016AA40
086AA46400
0640000000
ENDCHAR
STARTCHAR P
ENCODING 80
SWIDTH 513 0
DWIDTH 14 0
BBX 14 22 1 -1
BITMAP
01400000
09A00000
741A8000
A000A400
64014690
5A920020
50990020
9491A490
D55186C0
80990090
80A90640
90821800
80806000
95528000
95580000
80A00000
80800000
80800000
80800000
80500000
95800000
15000000
ENDCHAR
STARTCHAR Q
ENCODING 81
SWIDTH 612 0
DWIDTH 17 0
BBX 17 24 0 -4
BITMAP
0295400000
0815AAF800
0800802900
0800801800
0965402800
0949AAA500
0D48055600
19580A5600
0808050600
0814020600
1414020200
2414020200
269402A640
2020020200
2020426600
202AEA4B00
9020500740
5020500680
2E8016AA40
086AA86400
0648080000
0008050000
0008050000
0006A40000
ENDCHAR
STARTCHAR R
ENCODING 82
SWIDTH 532 0
DWIDTH 15 0
BBX 14 22 1 -1
BITMAP
01000000
0A900000
781A4000
A400E000
64008A90
5A820020
50A90020
8086A050
EA509AC0
809A0190
80A99240
90992800
80941400
90580800
96590600
80A26600
80828140
80808090
80805020
80502020
91801580
19000500
ENDCHAR
STARTCHAR S
ENCODING 83
SWIDTH 442 0
DWIDTH 12 0
BBX 13 21 0 -1
BITMAP
00156900
2A994200
2A880200
60840200
8066A900
20240000
14080000
08150000
06920000
03024000
01808000
00902000
0022A000
00281800
00080900
26B90200
94220140
80154600
8016E800
56A90000
14000000
ENDCHAR
STARTCHAR T
ENCODING 84
SWIDTH 453 0
DWIDTH 13 0
BBX 14 20 -1 0
BITMAP
195A5580
20525560
60014020
20010020
26A9AA90
04212040
00202000
003A6000
00202000
00202000
00202000
00202000
00242000
00256000
00202000
00202000
00202000
00602000
00502000
002A9000
ENDCHAR
STARTCHAR U
ENCODING 85
SWIDTH 583 0
DWIDTH 16 0
BBX 16 21 0 -1
BITMAP
01900190
09181918
08081408
08080818
08080818
08140808
1A580958
24581908
14140808
14200808
24200808
20200808
2A940AA5
20200905
20200A98
202BA428
50214019
90208016
2A905AA2
086A96A8
06400000
ENDCHAR
STARTCHAR V
ENCODING 86
SWIDTH 506 0
DWIDTH 14 0
BBX 14 20 0 -1
BITMAP
2A800A40
90802460
80802020
50502020
20602050
20209080
2A549580
24148080
14148140
08094200
080A0200
0507A600
06960200
02050500
02050800
01480800
01540800
00881800
0097A000
00540000
ENDCHAR
STARTCHAR W
ENCODING 87
SWIDTH 735 0
DWIDTH 21 0
BBX 21 20 0 -1
BITMAP
2A800002A900
90802A420240
808090820200
5090C0820200
205190850500
202260590500
2A56666E9500
241624280800
141614280800
080A08181400
080908141400
090A9AB51400
069809259400
02081A202000
020816202000
015422605000
016022905000
016420805000
019B90659000
005400154000
ENDCHAR
STARTCHAR X
ENCODING 88
SWIDTH 483 0
DWIDTH 14 0
BBX 14 19 0 0
BITMAP
0A802900
20905180
90608080
20214080
140A0200
080D0500
05B58800
03601800
01A02000
0080A000
0241A400
02A29800
09160800
08090600
20160240
90214090
80508050
60805180
1A402A00
ENDCHAR
STARTCHAR Y
ENCODING 89
SWIDTH 484 0
DWIDTH 14 0
BBX 16 19 -1 0
BITMAP
0A800AA0
20800808
90600809
60141414
18056020
0516E450
02918550
01814080
00920240
00260200
000D0500
00099800
00141800
00202400
00502000
01809000
01408000
00908000
001A4000
ENDCHAR
STARTCHAR Z
ENCODING 90
SWIDTH 458 0
DWIDTH 13 0
BBX 14 20 -1 0
BITMAP
01010100
0566A980
08010080
080100A0
051569A0
02964180
00074200
00099200
00181500
00201800
00502000
00C05000
02648000
02058000
09020100
180BAA40
60190080
20210080
19255580
02965600
ENDCHAR
STARTCHAR bracketleft
ENCODING 91
SWIDTH 420 0
DWIDTH 12 0
BBX 12 24 0 -2
BITMAP
000010
005698
079005
29A005
202568
202900
202000
202000
212000
396000
202000
202000
202000
202000
252000
256000
202000
202000
202000
203AA8
502005
256005
079549
015554
ENDCHAR
STARTCHAR backslash
ENCODING 92
SWIDTH 453 0
DWIDTH 13 0
BBX 12 19 0 0
BITMAP
1A9000
206000
502000
201400
080800
081A00
059200
020200
014140
008080
0080A0
005660
002424
002408
000809
000502
000202
000209
0001A4
ENDCHAR
STARTCHAR bracketright
ENCODING 93
SWIDTH 420 0
DWIDTH 12 0
BBX 11 24 0 -2
BITMAP
140000
669400
801680
801964
691408
016414
000814
000814
001458
00156C
000808
000808
000814
000808
001458
001558
000808
000808
000808
6AA808
801408
800958
5556D0
255540
ENDCHAR
STARTCHAR asciicircum
ENCODING 94
SWIDTH 353 0
DWIDTH 10 0
BBX 9 7 0 11
BITMAP
027800
051C00
082600
209140
516080
221480
190A40
ENDCHAR
STARTCHAR underscore
ENCODING 95
SWIDTH 499 0
DWIDTH 14 0
BBX 12 6 1 -8
BITMAP
2AAA68
800846
800802
800802
66AAA9
140004
ENDCHAR
STARTCHAR grave
ENCODING 96
SWIDTH 183 0
DWIDTH 5 0
BBX 5 7 0 21
BITMAP
0400
6600
8200
5140
2080
1480
0A40
ENDCHAR
STARTCHAR a
ENCODING 97
SWIDTH 507 0
DWIDTH 14 0
BBX 15 20 0 0
BITMAP
00640000
01964000
0140D000
01415400
02021400
02020800
0A920800
08160900
080AA600
080A0200
08094200
141497A0
2A5E9414
20148008
20208008
20205AE4
506AA050
80502020
90502020
2A801A80
ENDCHAR
STARTCHAR b
ENCODING 98
SWIDTH 533 0
DWIDTH 15 0
BBX 14 22 1 -1
BITMAP
06800000
18640000
A406D000
6400A900
690141A0
55A10020
509A4020
A951A890
906A0680
80A80180
90821900
5081A400
80864A40
A9780090
80964090
809AA0D0
81E91A60
A9020590
E0012900
A0068000
70640000
0A400000
ENDCHAR
STARTCHAR c
ENCODING 99
SWIDTH 515 0
DWIDTH 14 0
BBX 15 21 0 -1
BITMAP
02954000
0815AAA0
08008024
08008014
09654020
0949AAA0
0D480000
19580000
08080000
08140000
14140000
24140000
26940000
20200000
20200190
202AA920
90208014
50208014
2E8056A0
086A9400
06400000
ENDCHAR
STARTCHAR d
ENCODING 100
SWIDTH 520 0
DWIDTH 15 0
BBX 14 22 1 -1
BITMAP
00500000
1A600000
98080000
58060000
58019000
52403000
50909800
A9754600
91590190
80828020
90806060
50807590
80818920
A95A0090
806A4200
80A08800
80802400
80809000
80824000
80590000
6A940000
00600000
ENDCHAR
STARTCHAR e
ENCODING 101
SWIDTH 490 0
DWIDTH 14 0
BBX 13 20 1 0
BITMAP
1A450500
90AAA640
50520080
50820080
50955640
509A5500
A9500000
91500000
80AAA000
90802000
50802000
80942000
A9669000
80500000
80950000
809AAA00
80850200
80840140
80655200
6A955900
ENDCHAR
STARTCHAR f
ENCODING 102
SWIDTH 475 0
DWIDTH 13 0
BBX 13 20 1 0
BITMAP
1A450500
90AAA640
50520080
50820080
50955640
509A5500
A9500000
91500000
80AAA000
90802000
50802000
80942000
A9669000
80500000
80800000
80800000
80800000
80800000
80500000
6A800000
ENDCHAR
STARTCHAR g
ENCODING 103
SWIDTH 557 0
DWIDTH 16 0
BBX 16 21 0 -1
BITMAP
02954000
0815AAA0
08008024
08008014
09654020
0949AAA0
0D480000
19580000
08080190
08140918
14140808
24140804
26940808
20200998
20200908
202AA808
90208808
50208808
2E805809
086A96A4
06400000
ENDCHAR
STARTCHAR h
ENCODING 104
SWIDTH 611 0
DWIDTH 17 0
BBX 16 20 1 0
BITMAP
1A400A90
90902418
50502018
50802414
50801424
50801424
A9502554
90502554
80802020
90801428
508019A6
80916902
A9794502
80580416
808816A4
8096A420
80942020
80802014
80502024
6A801A90
ENDCHAR
STARTCHAR i
ENCODING 105
SWIDTH 266 0
DWIDTH 7 0
BBX 6 20 1 0
BITMAP
1A40
9090
5050
5080
5080
5080
A950
9050
8080
9080
5080
8080
A950
8050
8080
8080
8080
8080
8050
6A80
ENDCHAR
STARTCHAR j
ENCODING 106
SWIDTH 482 0
DWIDTH 14 0
BBX 14 21 -1 -1
BITMAP
00001A40
00006060
00005020
00002050
00002050
00005050
0000A950
00009050
00005050
01005080
1A805080
20505050
5024AA60
24099050
09169090
0290D080
01806080
00901850
00240850
00082A80
00069000
ENDCHAR
STARTCHAR k
ENCODING 107
SWIDTH 541 0
DWIDTH 15 0
BBX 15 20 1 0
BITMAP
1A400000
90900A80
50501860
50802014
50818024
50874090
A9599240
91641600
80A00800
90807000
5080A000
80A24800
A9560900
806D6600
80A34200
80820140
80818080
80808060
80508090
6A806A40
ENDCHAR
STARTCHAR l
ENCODING 108
SWIDTH 467 0
DWIDTH 13 0
BBX 13 20 1 0
BITMAP
1A400000
90900000
50500000
50800000
50800000
50800000
A9500000
90500000
80800000
90800000
50800000
80800000
A9500000
80500000
80900000
80AAAA00
80880180
80980080
80554140
6AA96A00
ENDCHAR
STARTCHAR m
ENCODING 109
SWIDTH 733 0
DWIDTH 21 0
BBX 21 20 0 0
BITMAP
01A400290000
024600918000
020240805000
02028080A000
020580816000
090882026000
0E8853A22000
081826061400
080A59079800
081C1D090800
14190C090800
2016080A0800
2A56068A0800
2062661A5500
202142224200
205082620200
505080914200
805080914240
805090914180
2A806A41AA40
ENDCHAR
STARTCHAR n
ENCODING 110
SWIDTH 598 0
DWIDTH 17 0
BBX 15 20 1 0
BITMAP
1A400690
90B41918
50580808
50880818
50850814
50820814
A9559A58
91649418
80809414
90906814
50A02814
80A40814
A9699A98
805D0518
80860214
80820154
808140A4
80808094
80508248
6A806EA0
ENDCHAR
STARTCHAR o
ENCODING 111
SWIDTH 612 0
DWIDTH 17 0
BBX 17 21 0 -1
BITMAP
0295400000
0815AAF800
0800802900
0800801800
0965402800
0949AAA500
0D48055600
19580A5600
0808050600
0814020600
1414020200
2414020200
269402A640
2020020200
2020426600
202AEA4B00
9020500740
5020500680
2E8016AA40
086AA46400
0640000000
ENDCHAR
STARTCHAR p
ENCODING 112
SWIDTH 513 0
DWIDTH 14 0
BBX 14 22 1 -1
BITMAP
01400000
09A00000
741A8000
A000A400
64014690
5A920020
50990020
9491A490
D55186C0
80990090
80A90640
90821800
80806000
95528000
95580000
80A00000
80800000
80800000
80800000
80500000
95800000
15000000
ENDCHAR
STARTCHAR q
ENCODING 113
SWIDTH 612 0
DWIDTH 17 0
BBX 17 24 0 -4
BITMAP
0295400000
0815AAF800
0800802900
0800801800
0965402800
0949AAA500
0D48055600
19580A5600
0808050600
0814020600
1414020200
2414020200
269402A640
2020020200
2020426600
202AEA4B00
9020500740
5020500680
2E8016AA40
086AA86400
0648080000
0008050000
0008050000
0006A40000
ENDCHAR
STARTCHAR r
ENCODING 114
SWIDTH 532 0
DWIDTH 15 0
BBX 14 22 1 -1
BITMAP
01000000
0A900000
781A4000
A400E000
64008A90
5A820020
50A90020
8086A050
EA509AC0
809A0190
80A99240
90992800
80941400
90580800
96590600
80A26600
80828140
80808090
80805020
80502020
91801580
19000500
ENDCHAR
STARTCHAR s
ENCODING 115
SWIDTH 442 0
DWIDTH 12 0
BBX 13 21 0 -1
BITMAP
00156900
2A994200
2A880200
60840200
8066A900
20240000
14080000
08150000
06920000
03024000
01808000
00902000
0022A000
00281800
00080900
26B90200
94220140
80154600
8016E800
56A90000
14000000
ENDCHAR
STARTCHAR t
ENCODING 116
SWIDTH 453 0
DWIDTH 13 0
BBX 14 20 -1 0
BITMAP
195A5580
20525560
60014020
20010020
26A9AA90
04212040
00202000
003A6000
00202000
00202000
00202000
00202000
00242000
00256000
00202000
00202000
00202000
00602000
00502000
002A9000
ENDCHAR
STARTCHAR u
ENCODING 117
SWIDTH 583 0
DWIDTH 16 0
BBX 16 21 0 -1
BITMAP
01900190
09181918
08081408
08080818
08080818
08140808
1A580958
24581908
14140808
14200808
24200808
20200808
2A940AA5
20200905
20200A98
202BA428
50214019
90208016
2A905AA2
086A96A8
06400000
ENDCHAR
STARTCHAR v
ENCODING 118
SWIDTH 506 0
DWIDTH 14 0
BBX 14 20 0 -1
BITMAP
2A800A40
90802460
80802020
50502020
20602050
20209080
2A549580
24148080
14148140
08094200
080A0200
0507A600
06960200
02050500
02050800
01480800
01540800
00881800
0097A000
00540000
ENDCHAR
STARTCHAR w
ENCODING 119
SWIDTH 735 0
DWIDTH 21 0
BBX 21 20 0 -1
BITMAP
2A800002A900
90802A420240
808090820200
5090C0820200
205190850500
202260590500
2A56666E9500
241624280800
141614280800
080A08181400
080908141400
090A9AB51400
069809259400
02081A202000
020816202000
015422605000
016022905000
016420805000
019B90659000
005400154000
ENDCHAR
STARTCHAR x
ENCODING 120
SWIDTH 483 0
DWIDTH 14 0
BBX 14 19 0 0
BITMAP
0A802900
20905180
90608080
20214080
140A0200
080D0500
05B58800
03601800
01A02000
0080A000
0241A400
02A29800
09160800
08090600
20160240
90214090
80508050
60805180
1A402A00
ENDCHAR
STARTCHAR y
ENCODING 121
SWIDTH 484 0
DWIDTH 14 0
BBX 16 19 -1 0
BITMAP
0A800AA0
20800808
90600809
60141414
18056020
0516E450
02918550
01814080
00920240
00260200
000D0500
00099800
00141800
00202400
00502000
01809000
01408000
00908000
001A4000
ENDCHAR
STARTCHAR z
ENCODING 122
SWIDTH 458 0
DWIDTH 13 0
BBX 14 20 -1 0
BITMAP
01010100
0566A980
08010080
080100A0
051569A0
02964180
00074200
00099200
00181500
00201800
00502000
00C05000
02648000
02058000
09020100
180BAA40
60190080
20210080
19255580
02965600
ENDCHAR
STARTCHAR braceleft
ENCODING 123
SWIDTH 473 0
DWIDTH 13 0
BBX 13 24 0 -2
BITMAP
00000500
00156640
01960080
02020080
02021680
0080D400
00998000
00A05000
00502000
25652400
81554800
8000A400
8001A000
6AAA2400
00202000
00905000
00A98000
01418000
02024000
0602AA40
08050080
06050080
01BE5180
00001A00
ENDCHAR
STARTCHAR bar
ENCODING 124
SWIDTH 263 0
DWIDTH 7 0
BBX 6 24 1 -2
BITMAP
0500
6680
8050
5050
5080
5080
5080
9550
E550
8080
8080
9080
9080
8080
A950
9550
8080
8080
8080
8080
8080
8050
A680
1500
ENDCHAR
STARTCHAR braceright
ENCODING 125
SWIDTH 473 0
DWIDTH 13 0
BBX 14 24 0 -2
BITMAP
04000000
26954000
9025A000
80101400
65202000
01905000
00998000
0081C000
01408000
02165640
05255480
02500050
02900050
022AAA80
02414000
00808000
008A9000
00902000
00202000
2AA41800
50140800
90082400
516F9000
29400000
ENDCHAR
STARTCHAR asciitilde
ENCODING 126
SWIDTH 456 0
DWIDTH 13 0
BBX 12 7 0 7
BITMAP
02A469
061C82
082682
145248
60A094
2214A0
190AD0
ENDCHAR
STARTCHAR nonbreakingspace
ENCODING 160
SWIDTH 200 0
DWIDTH 6 0
BBX 1 1 0 0
BITMAP
00
ENDCHAR
STARTCHAR exclamdown
ENCODING 161
SWIDTH 259 0
DWIDTH 7 0
BBX 5 21 1 -1
BITMAP
0500
2580
2080
1080
2680
0000
1A40
9080
5080
5080
5080
8080
8080
9AC0
8080
8080
8080
8080
8080
9580
1500
ENDCHAR
STARTCHAR cent
ENCODING 162
SWIDTH 480 0
DWIDTH 13 0
BBX 13 26 0 -4
BITMAP
001A8000
00202000
00205000
00205400
0020AA00
002A4140
06A20080
18014180
68006940
280A8000
22640000
20600000
7A600000
20200000
20500000
20350000
5026D000
60609A40
1F814080
06A50080
002A9140
00209A00
00208000
00104000
00649000
00064000
ENDCHAR
STARTCHAR sterling
ENCODING 163
SWIDTH 594 0
DWIDTH 17 0
BBX 16 19 0 0
BITMAP
000A9000
00241A50
00A00060
00A00014
009A9020
00809A60
00808040
1AE59500
60809640
50808140
50808140
2680AA00
04E98000
00809004
0080AAA6
00808802
00808802
01409556
00AAA954
ENDCHAR
STARTCHAR currency
ENCODING 164
SWIDTH 640 0
DWIDTH 18 0
BBX 18 17 0 2
BITMAP
0100000400
1981902640
2052295080
5019668090
2424808180
05A8802900
0282642900
0600899140
1802424080
080A0A0180
0914A58600
06E0245C00
2860082640
5018248090
2062929080
2480962640
0640140500
ENDCHAR
STARTCHAR yen
ENCODING 165
SWIDTH 575 0
DWIDTH 16 0
BBX 16 19 0 0
BITMAP
068006A0
24800518
60200805
60140808
18052014
0506A420
0260DA60
01808090
00914180
02BB9690
09109520
08008020
08008020
066A6A60
01606040
00906000
01805000
00908000
001A8000
ENDCHAR
STARTCHAR brokenbar
ENCODING 166
SWIDTH 258 0
DWIDTH 7 0
BBX 6 25 1 -3
BITMAP
6A40
8080
8080
8080
8080
E980
8080
8080
8080
8090
9180
1900
0000
1A00
9180
8080
8080
8080
A980
8080
8080
8080
8080
8090
6A40
ENDCHAR
STARTCHAR section
ENCODING 167
SWIDTH 474 0
DWIDTH 13 0
BBX 12 21 1 -1
BITMAP
0065A4
AA6508
801408
A81408
96AAA4
802A40
805068
6941AC
15A605
205605
508808
80A820
A56660
955018
1A4008
16E808
951668
801448
800558
96A954
140000
ENDCHAR
STARTCHAR dieresis
ENCODING 168
SWIDTH 351 0
DWIDTH 10 0
BBX 10 5 0 21
BITMAP
050100
9599A0
815050
515450
6A1A80
ENDCHAR
STARTCHAR copyright
ENCODING 169
SWIDTH 719 0
DWIDTH 20 0
BBX 20 22 0 -1
BITMAP
0100000000
056AEAAAA0
18008051A8
2800405205
26AAAAAB08
1080000208
2081AA8208
2582005258
2557559258
2086654208
2082200208
2082200208
2085204208
2A552593A8
2086A05208
2081AA8208
2080000208
20ABAAEB98
6082008028
2A41004024
0AAAAAAA90
0000000040
ENDCHAR
STARTCHAR ordfeminine
ENCODING 170
SWIDTH 455 0
DWIDTH 13 0
BBX 14 20 -1 0
BITMAP
00145000
00AA5800
00880800
00880800
01850500
02420200
02020200
0AA36A40
08064140
09998080
16008080
26005050
625AA020
24602060
06901A40
01A55800
02054200
05000200
02000200
02AAA900
ENDCHAR
STARTCHAR guillemotleft
ENCODING 171
SWIDTH 689 0
DWIDTH 19 0
BBX 19 13 0 3
BITMAP
001A400290
0060801820
024080A014
2801864064
5009080180
6020080900
74A00A2800
5609099240
2802864060
0240809014
0090801420
0026400690
0004000100
ENDCHAR
STARTCHAR logicalnot
ENCODING 172
SWIDTH 591 0
DWIDTH 17 0
BBX 16 11 0 1
BITMAP
19565050
21559A64
500081A8
50008202
21555A01
19555205
00000205
00000205
00000205
00000205
000001A8
ENDCHAR
STARTCHAR uni00AD
ENCODING 173
SWIDTH 465 0
DWIDTH 13 0
BBX 13 6 0 6
BITMAP
1AAA5900
20055200
50050140
20050240
26AAAA00
04000000
ENDCHAR
STARTCHAR registered
ENCODING 174
SWIDTH 719 0
DWIDTH 20 0
BBX 20 22 0 -1
BITMAP
0100000000
056AEAAAA0
18008051A8
2800405205
26AAAAAB08
1080000208
2080100208
2582994258
2555806258
2085A95208
2081218208
2082200208
2081200208
2A552003A8
2085200208
2086A00208
2080000208
20ABAAEB98
6082008028
2A41004024
0AAAAAAA90
0000000040
ENDCHAR
STARTCHAR macron
ENCODING 175
SWIDTH 263 0
DWIDTH 7 0
BBX 8 4 0 21
BITMAP
2964
8145
8005
6AA8
ENDCHAR
STARTCHAR degree
ENCODING 176
SWIDTH 333 0
DWIDTH 9 0
BBX 9 8 0 11
BITMAP
065800
086500
142200
60A140
926480
2A5A80
200540
2AAA00
ENDCHAR
STARTCHAR plusminus
ENCODING 177
SWIDTH 464 0
DWIDTH 13 0
BBX 13 18 0 -3
BITMAP
006A4000
00808000
00408000
1AA99900
20455600
50050140
50050140
25A5A600
05558400
00808000
00808000
002A0000
00000000
2AAEAA00
60050200
50050140
20050200
2AAAAA00
ENDCHAR
STARTCHAR twosuperior
ENCODING 178
SWIDTH 324 0
DWIDTH 9 0
BBX 9 12 0 8
BITMAP
140000
255600
500200
514200
165A00
010800
081400
142100
205540
244040
2A5540
040500
ENDCHAR
STARTCHAR threesuperior
ENCODING 179
SWIDTH 332 0
DWIDTH 9 0
BBX 9 12 0 8
BITMAP
140000
555500
400240
514240
16A940
041140
041140
019040
259080
202640
205A00
090000
ENDCHAR
STARTCHAR acute
ENCODING 180
SWIDTH 202 0
DWIDTH 6 0
BBX 6 6 0 21
BITMAP
0680
0850
2490
5140
8600
6800
ENDCHAR
STARTCHAR mu
ENCODING 181
SWIDTH 582 0
DWIDTH 16 0
BBX 15 24 1 -4
BITMAP
00000500
2A906590
20205060
20206050
20202050
20502050
20506520
50506560
6A606020
50602020
50502020
50502020
50902564
50902560
50502620
AA6AA4A0
805500A0
508100A4
90811688
80AAA964
80800540
80900000
91900000
19000000
ENDCHAR
STARTCHAR paragraph
ENCODING 182
SWIDTH 556 0
DWIDTH 16 0
BBX 15 22 0 -1
BITMAP
00000400
00006600
001A41E0
01A40094
2A1400A0
50086A60
5006A420
20A42020
2A243A54
20066020
0902B020
01882020
00602020
00182520
00026594
0000B020
00002020
00002020
00002020
00002024
00002560
00000540
ENDCHAR
STARTCHAR periodcentered
ENCODING 183
SWIDTH 215 0
DWIDTH 6 0
BBX 4 5 1 8
BITMAP
14
96
82
82
AA
ENDCHAR
STARTCHAR cedilla
ENCODING 184
SWIDTH 237 0
DWIDTH 7 0
BBX 7 9 0 -6
BITMAP
0040
01A4
0214
0214
0214
1A08
91B0
81A0
6900
ENDCHAR
STARTCHAR onesuperior
ENCODING 185
SWIDTH 286 0
DWIDTH 8 0
BBX 7 12 0 8
BITMAP
0050
0114
0808
5018
8084
5248
1948
0108
0108
0104
0148
0050
ENDCHAR
STARTCHAR ordmasculine
ENCODING 186
SWIDTH 476 0
DWIDTH 13 0
BBX 13 20 0 0
BITMAP
04040000
26AAAA00
20020140
20026A80
30018080
3AAA8080
20508040
20508140
20408140
206A9A40
60525140
3A820140
20010140
26AAAA00
04000000
06955400
08054800
08000800
08000800
06AAA400
ENDCHAR
STARTCHAR guillemotright
ENCODING 187
SWIDTH 689 0
DWIDTH 19 0
BBX 18 13 1 3
BITMAP
29000A8000
8140246000
8060200900
900A240190
1801464020
0241409060
029740A590
0825424520
A00A180180
8064200900
8180242000
26000A8000
0400000000
ENDCHAR
STARTCHAR onequarter
ENCODING 188
SWIDTH 790 0
DWIDTH 22 0
BBX 22 20 0 0
BITMAP
005000000000
014806400000
050508240000
601908200000
405108200000
218114500000
094120500000
004129400000
004120800000
004210802800
008551404200
001481014640
000091051450
000046142450
000142106940
000105204180
0002082A0180
000508196A50
000258001050
000050000A80
ENDCHAR
STARTCHAR onehalf
ENCODING 189
SWIDTH 771 0
DWIDTH 22 0
BBX 21 21 0 -1
BITMAP
005000000000
014806400000
050508240000
601908200000
405108200000
218114500000
094120500000
004129400000
004120800000
004210850000
008551615600
001481200140
000091255500
000046059600
000142010500
000105050400
000208142500
000508201580
000258198080
0000500A9580
000000000100
ENDCHAR
STARTCHAR threequarters
ENCODING 190
SWIDTH 817 0
DWIDTH 23 0
BBX 23 20 0 0
BITMAP
140000000000
155601900000
500242080000
514242080000
16A541080000
051145140000
051148100000
01904A500000
155084200000
202654100A00
205A14502080
090020405190
000024814514
000011850910
000050541A50
000041481060
0000820A8060
000142065A90
000096000414
0000140002A0
ENDCHAR
STARTCHAR questiondown
ENCODING 191
SWIDTH 455 0
DWIDTH 13 0
BBX 12 21 0 -1
BITMAP
000290
000914
000814
000808
0006A0
000000
000AA0
000814
000810
001A54
009094
060060
680180
6A5900
606A00
5005A9
502002
2A6002
007902
000199
000010
ENDCHAR
STARTCHAR Agrave
ENCODING 192
SWIDTH 507 0
DWIDTH 14 0
BBX 15 27 0 0
BITMAP
00040000
00A80000
01450000
00820000
00520000
00214000
001A0000
00640000
01964000
0140D000
01415400
02021400
02020800
0A920800
08160900
080AA600
080A0200
08094200
141497A0
2A5E9414
20148008
20208008
20205AE4
506AA050
80502020
90502020
2A801A80
ENDCHAR
STARTCHAR Aacute
ENCODING 193
SWIDTH 507 0
DWIDTH 14 0
BBX 15 26 0 0
BITMAP
00002900
00009200
00008600
00020800
00052000
00029000
00640000
01964000
0140D000
01415400
02021400
02020800
0A920800
08160900
080AA600
080A0200
08094200
141497A0
2A5E9414
20148008
20208008
20205AE4
506AA050
80502020
90502020
2A801A80
ENDCHAR
STARTCHAR Acircumflex
ENCODING 194
SWIDTH 507 0
DWIDTH 14 0
BBX 15 27 0 0
BITMAP
001A8000
0020D000
0051A000
00821800
020A0900
02148500
01A0A800
00640000
01964000
0140D000
01415400
02021400
02020800
0A920800
08160900
080AA600
080A0200
08094200
141497A0
2A5E9414
20148008
20208008
20205AE4
506AA050
80502020
90502020
2A801A80
ENDCHAR
STARTCHAR Atilde
ENCODING 195
SWIDTH 507 0
DWIDTH 14 0
BBX 15 27 0 0
BITMAP
006A0A80
00835450
0245A080
05185240
08282600
08551C00
0682B800
00640000
01964000
0140D000
01415400
02021400
02020800
0A920800
08160900
080AA600
080A0200
08094200
141497A0
2A5E9414
20148008
20208008
20205AE4
506AA050
80502020
90502020
2A801A80
ENDCHAR
STARTCHAR Adieresis
ENCODING 196
SWIDTH 507 0
DWIDTH 14 0
BBX 15 26 0 0
BITMAP
00501400
06589600
05088200
02088200
02A4A900
00000000
00640000
01964000
0140D000
01415400
02021400
02020800
0A920800
08160900
080AA600
080A0200
08094200
141497A0
2A5E9414
20148008
20208008
20205AE4
506AA050
80502020
90502020
2A801A80
ENDCHAR
STARTCHAR Aring
ENCODING 197
SWIDTH 507 0
DWIDTH 14 0
BBX 15 28 0 0
BITMAP
002AA000
00515400
00824800
02094500
021EC100
01A06C00
01400800
00A5A400
00640000
01964000
0140D000
01415400
02021400
02020800
0A920800
08160900
080AA600
080A0200
08094200
141497A0
2A5E9414
20148008
20208008
20205AE4
506AA050
80502020
90502020
2A801A80
ENDCHAR
STARTCHAR AE
ENCODING 198
SWIDTH 797 0
DWIDTH 22 0
BBX 24 20 -1 0
BITMAP
000000A41014
0000AA46AA98
000086421405
000140821405
000201425558
000503026554
001D0AA60000
00258E020000
00201603AA40
005022020080
008082020080
024096025140
02A157A65A00
050602020000
080502025000
140EAA026AA4
602402022008
502005022008
242005025508
069002A955A0
ENDCHAR
STARTCHAR Ccedilla
ENCODING 199
SWIDTH 515 0
DWIDTH 14 0
BBX 15 26 0 -6
BITMAP
02954000
0815AAA0
08008024
08008014
09654020
0949AAA0
0D480000
19580000
08080000
08140000
14140000
24140000
26940000
20200000
20200190
202AA920
90208014
50208014
2E8056A0
086BA400
06421400
00021400
001A0800
0091B000
0081A000
00690000
ENDCHAR
STARTCHAR Egrave
ENCODING 200
SWIDTH 490 0
DWIDTH 14 0
BBX 13 28 1 0
BITMAP
00100000
01980000
02080000
02480000
00850000
00520000
00290000
00000000
1A450500
90AAA640
50520080
50820080
50955640
509A5500
A9500000
91500000
80AAA000
90802000
50802000
80942000
A9669000
80500000
80950000
809AAA00
80850200
80840140
80655200
6A955900
ENDCHAR
STARTCHAR Eacute
ENCODING 201
SWIDTH 490 0
DWIDTH 14 0
BBX 13 27 1 0
BITMAP
00029000
00052000
00082000
00208000
00520000
00290000
00000000
1A450500
90AAA640
50520080
50820080
50955640
509A5500
A9500000
91500000
80AAA000
90802000
50802000
80942000
A9669000
80500000
80950000
809AAA00
80850200
80840140
80655200
6A955900
ENDCHAR
STARTCHAR Ecircumflex
ENCODING 202
SWIDTH 490 0
DWIDTH 14 0
BBX 13 28 1 0
BITMAP
006A0000
00834000
01458000
06185000
08282400
08521400
0682A000
00000000
1A450500
90AAA640
50520080
50820080
50955640
509A5500
A9500000
91500000
80AAA000
90802000
50802000
80942000
A9669000
80500000
80950000
809AAA00
80850200
80840140
80655200
6A955900
ENDCHAR
STARTCHAR Edieresis
ENCODING 203
SWIDTH 490 0
DWIDTH 14 0
BBX 13 26 1 0
BITMAP
01405000
19665800
14210800
08220800
0A92A400
00000000
1A450500
90AAA640
50520080
50820080
50955640
509A5500
A9500000
91500000
80AAA000
90802000
50802000
80942000
A9669000
80500000
80950000
809AAA00
80850200
80840140
80655200
6A955900
ENDCHAR
STARTCHAR Igrave
ENCODING 204
SWIDTH 266 0
DWIDTH 7 0
BBX 7 28 0 0
BITMAP
0400
6600
8200
9200
2040
1480
0A40
0000
0690
2424
1414
1420
1420
1420
2A54
2414
2020
2420
1420
2020
2A54
2014
2020
2020
2020
2020
2014
1AA0
ENDCHAR
STARTCHAR Iacute
ENCODING 205
SWIDTH 266 0
DWIDTH 7 0
BBX 8 27 1 0
BITMAP
00A4
0185
0209
0920
0850
0680
0000
1A40
9090
5050
5080
5080
5080
A950
9050
8080
9080
5080
8080
A950
8050
8080
8080
8080
8080
8050
6A80
ENDCHAR
STARTCHAR Icircumflex
ENCODING 206
SWIDTH 266 0
DWIDTH 7 0
BBX 9 28 0 0
BITMAP
06A000
083400
145800
518500
828240
852140
682A00
000000
069000
242400
141400
142000
142000
142000
2A5400
241400
202000
242000
142000
202000
2A5400
201400
202000
202000
202000
202000
201400
1AA000
ENDCHAR
STARTCHAR Idieresis
ENCODING 207
SWIDTH 266 0
DWIDTH 7 0
BBX 10 26 -1 0
BITMAP
050100
9599A0
815050
515450
6A1A80
000000
01A400
090900
050500
050800
050800
050800
0A9500
090500
080800
090800
050800
080800
0A9500
080500
080800
080800
080800
080800
080500
06A800
ENDCHAR
STARTCHAR Eth
ENCODING 208
SWIDTH 669 0
DWIDTH 19 0
BBX 20 22 -1 -1
BITMAP
0000050000
0001AA4000
0006908000
0005802000
0002900900
0002240340
00050A0580
000A975420
0409059009
26AA851802
5000280602
500025025A
25555508A2
155BE66009
000906A424
00050A0890
0005080140
0005080900
0008052400
0008065000
0006AD8000
0000060000
ENDCHAR
STARTCHAR Ntilde
ENCODING 209
SWIDTH 598 0
DWIDTH 17 0
BBX 15 28 1 0
BITMAP
002A4690
0051C820
00826820
02452480
050A0940
05214A00
0190AD00
00000000
1A400690
90B41918
50580808
50880818
50850814
50820814
A9559A58
91649418
80809414
90906814
50A02814
80A40814
A9699A98
805D0518
80860214
80820154
808140A4
80808094
80508248
6A806EA0
ENDCHAR
STARTCHAR Ograve
ENCODING 210
SWIDTH 612 0
DWIDTH 17 0
BBX 17 29 0 -1
BITMAP
0000400000
0006900000
0018200000
0008200000
0002140000
0002080000
0000A00000
0000000000
0295400000
0815AAF800
0800802900
0800801800
0965402800
0949AAA500
0D48055600
19580A5600
0808050600
0814020600
1414020200
2414020200
269402A640
2020020200
2020426600
202AEA4B00
9020500740
5020500680
2E8016AA40
086AA46400
0640000000
ENDCHAR
STARTCHAR Oacute
ENCODING 211
SWIDTH 612 0
DWIDTH 17 0
BBX 17 28 0 -1
BITMAP
00000A4000
0000185000
0000209000
0000920000
0000850000
0000680000
0000000000
0295400000
0815AAF800
0800802900
0800801800
0965402800
0949AAA500
0D48055600
19580A5600
0808050600
0814020600
1414020200
2414020200
269402A640
2020020200
2020426600
202AEA4B00
9020500740
5020500680
2E8016AA40
086AA46400
0640000000
ENDCHAR
STARTCHAR Ocircumflex
ENCODING 212
SWIDTH 612 0
DWIDTH 17 0
BBX 17 28 0 -1
BITMAP
0002A80000
00021C0000
0008160000
0014614000
0020A08000
0022145000
001A0A4000
0295400000
0815AAF800
0800802900
0800801800
0965402800
0949AAA500
0D48055600
19580A5600
0808050600
0814020600
1414020200
2414020200
269402A640
2020020200
2020426600
202AEA4B00
9020500740
5020500680
2E8016AA40
086AA46400
0640000000
ENDCHAR
STARTCHAR Otilde
ENCODING 213
SWIDTH 612 0
DWIDTH 17 0
BBX 17 28 0 -1
BITMAP
0006A0A800
0008354500
00145A0800
0061862400
0082826000
008521D000
00682B8000
0295400000
0815AAF800
0800802900
0800801800
0965402800
0949AAA500
0D48055600
19580A5600
0808050600
0814020600
1414020200
2414020200
269402A640
2020020200
2020426600
202AEA4B00
9020500740
5020500680
2E8016AA40
086AA46400
0640000000
ENDCHAR
STARTCHAR Odieresis
ENCODING 214
SWIDTH 612 0
DWIDTH 17 0
BBX 17 27 0 -1
BITMAP
0014050000
0196259000
0082208000
0082208000
00A91A4000
0000000000
0295400000
0815AAF800
0800802900
0800801800
0965402800
0949AAA500
0D48055600
19580A5600
0808050600
0814020600
1414020200
2414020200
269402A640
2020020200
2020426600
202AEA4B00
9020500740
5020500680
2E8016AA40
086AA46400
0640000000
ENDCHAR
STARTCHAR multiply
ENCODING 215
SWIDTH 421 0
DWIDTH 12 0
BBX 10 11 1 4
BITMAP
040000
260A80
80A460
806020
800C60
241A40
295180
924060
80D020
826490
290A40
ENDCHAR
STARTCHAR Oslash
ENCODING 216
SWIDTH 612 0
DWIDTH 17 0
BBX 17 21 0 -1
BITMAP
0295404000
0815AAA800
0800820600
0800850200
0965480900
0949B42900
0D48A02600
1958999600
0809418600
0816020600
1419060200
24180A0200
26B822A640
2056220200
2080526600
2141EA4B00
9602500740
5809500680
240816AA40
081AA46400
06A0000000
ENDCHAR
STARTCHAR Ugrave
ENCODING 217
SWIDTH 583 0
DWIDTH 16 0
BBX 16 28 0 -1
BITMAP
00010000
001A4000
00208000
00208000
00085000
00052000
00029000
01900190
09181918
08081408
08080818
08080818
08140808
1A580958
24581908
14140808
14200808
24200808
20200808
2A940AA5
20200905
20200A98
202BA428
50214019
90208016
2A905AA2
086A96A8
06400000
ENDCHAR
STARTCHAR Uacute
ENCODING 218
SWIDTH 583 0
DWIDTH 16 0
BBX 16 28 0 -1
BITMAP
00002900
00005200
00008200
00020800
00062000
00029000
00000000
01900190
09181918
08081408
08080818
08080818
08140808
1A580958
24581908
14140808
14200808
24200808
20200808
2A940AA5
20200905
20200A98
202BA428
50214019
90208016
2A905AA2
086A96A8
06400000
ENDCHAR
STARTCHAR Ucircumflex
ENCODING 219
SWIDTH 583 0
DWIDTH 16 0
BBX 16 28 0 -1
BITMAP
000AA000
00087000
00205800
00518500
00828200
00845140
00682900
01900190
09181918
08081408
08080818
08080818
08140808
1A580958
24581908
14140808
14200808
24200808
20200808
2A940AA5
20200905
20200A98
202BA428
50214019
90208016
2A905AA2
086A96A8
06400000
ENDCHAR
STARTCHAR Udieresis
ENCODING 220
SWIDTH 583 0
DWIDTH 16 0
BBX 16 27 0 -1
BITMAP
00140400
02966580
01455080
01455140
00A92A00
00000000
01900190
09181918
08081408
08080818
08080818
08140808
1A580958
24581908
14140808
14200808
24200808
20200808
2A940AA5
20200905
20200A98
202BA428
50214019
90208016
2A905AA2
086A96A8
06400000
ENDCHAR
STARTCHAR Yacute
ENCODING 221
SWIDTH 484 0
DWIDTH 14 0
BBX 16 25 -1 0
BITMAP
00002900
00008200
00018600
00020800
00052000
00029000
0A800AA0
20800808
90600809
60141414
18056020
0516E450
02918550
01814080
00920240
00260200
000D0500
00099800
00141800
00202400
00502000
01809000
01408000
00908000
001A4000
ENDCHAR
STARTCHAR Thorn
ENCODING 222
SWIDTH 520 0
DWIDTH 15 0
BBX 14 21 1 -1
BITMAP
05000000
65900000
91500000
59A00000
641A8000
6400A400
A4008690
9A920020
80A90020
9081A450
508186D0
809A0090
95690640
95521800
80806000
80828000
80890000
80A00000
80500000
A5800000
15000000
ENDCHAR
STARTCHAR germandbls
ENCODING 223
SWIDTH 884 0
DWIDTH 25 0
BBX 25 21 0 -1
BITMAP
00156900156A00
2A99421A994140
2A88022A850140
60840224510140
8066A96026AA00
20240024190000
14080008090000
08150005160000
06920002920000
03024002408000
01808000805000
00902000602400
0022A000219800
002818001D0800
00080900090600
26B90215BA0140
94220195194080
80154680088240
8016E85005ED00
56A90026A90000
14000004000000
ENDCHAR
STARTCHAR agrave
ENCODING 224
SWIDTH 507 0
DWIDTH 14 0
BBX 15 27 0 0
BITMAP
00040000
00A80000
01450000
00820000
00520000
00214000
001A0000
00640000
01964000
0140D000
01415400
02021400
02020800
0A920800
08160900
080AA600
080A0200
08094200
141497A0
2A5E9414
20148008
20208008
20205AE4
506AA050
80502020
90502020
2A801A80
ENDCHAR
STARTCHAR aacute
ENCODING 225
SWIDTH 507 0
DWIDTH 14 0
BBX 15 26 0 0
BITMAP
00002900
00009200
00008600
00020800
00052000
00029000
00640000
01964000
0140D000
01415400
02021400
02020800
0A920800
08160900
080AA600
080A0200
08094200
141497A0
2A5E9414
20148008
20208008
20205AE4
506AA050
80502020
90502020
2A801A80
ENDCHAR
STARTCHAR acircumflex
ENCODING 226
SWIDTH 507 0
DWIDTH 14 0
BBX 15 27 0 0
BITMAP
001A8000
0020D000
0051A000
00821800
020A0900
02148500
01A0A800
00640000
01964000
0140D000
01415400
02021400
02020800
0A920800
08160900
080AA600
080A0200
08094200
141497A0
2A5E9414
20148008
20208008
20205AE4
506AA050
80502020
90502020
2A801A80
ENDCHAR
STARTCHAR atilde
ENCODING 227
SWIDTH 507 0
DWIDTH 14 0
BBX 15 27 0 0
BITMAP
006A0A80
00835450
0245A080
05185240
08282600
08551C00
0682B800
00640000
01964000
0140D000
01415400
02021400
02020800
0A920800
08160900
080AA600
080A0200
08094200
141497A0
2A5E9414
20148008
20208008
20205AE4
506AA050
80502020
90502020
2A801A80
ENDCHAR
STARTCHAR adieresis
ENCODING 228
SWIDTH 507 0
DWIDTH 14 0
BBX 15 26 0 0
BITMAP
00501400
06589600
05088200
02088200
02A4A900
00000000
00640000
01964000
0140D000
01415400
02021400
02020800
0A920800
08160900
080AA600
080A0200
08094200
141497A0
2A5E9414
20148008
20208008
20205AE4
506AA050
80502020
90502020
2A801A80
ENDCHAR
STARTCHAR aring
ENCODING 229
SWIDTH 507 0
DWIDTH 14 0
BBX 15 28 0 0
BITMAP
002AA000
00515400
00824800
02094500
021EC100
01A06C00
01400800
00A5A400
00640000
01964000
0140D000
01415400
02021400
02020800
0A920800
08160900
080AA600
080A0200
08094200
141497A0
2A5E9414
20148008
20208008
20205AE4
506AA050
80502020
90502020
2A801A80
ENDCHAR
STARTCHAR ae
ENCODING 230
SWIDTH 797 0
DWIDTH 22 0
BBX 24 20 -1 0
BITMAP
000000A41014
0000AA46AA98
000086421405
000140821405
000201425558
000503026554
001D0AA60000
00258E020000
00201603AA40
005022020080
008082020080
024096025140
02A157A65A00
050602020000
080502025000
140EAA026AA4
602402022008
502005022008
242005025508
069002A955A0
ENDCHAR
STARTCHAR ccedilla
ENCODING 231
SWIDTH 515 0
DWIDTH 14 0
BBX 15 26 0 -6
BITMAP
02954000
0815AAA0
08008024
08008014
09654020
0949AAA0
0D480000
19580000
08080000
08140000
14140000
24140000
26940000
20200000
20200190
202AA920
90208014
50208014
2E8056A0
086BA400
06421400
00021400
001A0800
0091B000
0081A000
00690000
ENDCHAR
STARTCHAR egrave
ENCODING 232
SWIDTH 490 0
DWIDTH 14 0
BBX 13 28 1 0
BITMAP
00100000
01980000
02080000
02480000
00850000
00520000
00290000
00000000
1A450500
90AAA640
50520080
50820080
50955640
509A5500
A9500000
91500000
80AAA000
90802000
50802000
80942000
A9669000
80500000
80950000
809AAA00
80850200
80840140
80655200
6A955900
ENDCHAR
STARTCHAR eacute
ENCODING 233
SWIDTH 490 0
DWIDTH 14 0
BBX 13 27 1 0
BITMAP
00029000
00052000
00082000
00208000
00520000
00290000
00000000
1A450500
90AAA640
50520080
50820080
50955640
509A5500
A9500000
91500000
80AAA000
90802000
50802000
80942000
A9669000
80500000
80950000
809AAA00
80850200
80840140
80655200
6A955900
ENDCHAR
STARTCHAR ecircumflex
ENCODING 234
SWIDTH 490 0
DWIDTH 14 0
BBX 13 28 1 0
BITMAP
006A0000
00834000
01458000
06185000
08282400
08521400
0682A000
00000000
1A450500
90AAA640
50520080
50820080
50955640
509A5500
A9500000
91500000
80AAA000
90802000
50802000
80942000
A9669000
80500000
80950000
809AAA00
80850200
80840140
80655200
6A955900
ENDCHAR
STARTCHAR edieresis
ENCODING 235
SWIDTH 490 0
DWIDTH 14 0
BBX 13 26 1 0
BITMAP
01405000
19665800
14210800
08220800
0A92A400
00000000
1A450500
90AAA640
50520080
50820080
50955640
509A5500
A9500000
91500000
80AAA000
90802000
50802000
80942000
A9669000
80500000
80950000
809AAA00
80850200
80840140
80655200
6A955900
ENDCHAR
STARTCHAR igrave
ENCODING 236
SWIDTH 266 0
DWIDTH 7 0
BBX 7 28 0 0
BITMAP
0400
6600
8200
9200
2040
1480
0A40
0000
0690
2424
1414
1420
1420
1420
2A54
2414
2020
2420
1420
2020
2A54
2014
2020
2020
2020
2020
2014
1AA0
ENDCHAR
STARTCHAR iacute
ENCODING 237
SWIDTH 266 0
DWIDTH 7 0
BBX 8 27 1 0
BITMAP
00A4
0185
0209
0920
0850
0680
0000
1A40
9090
5050
5080
5080
5080
A950
9050
8080
9080
5080
8080
A950
8050
8080
8080
8080
8080
8050
6A80
ENDCHAR
STARTCHAR icircumflex
ENCODING 238
SWIDTH 266 0
DWIDTH 7 0
BBX 9 28 0 0
BITMAP
06A000
083400
145800
518500
828240
852140
682A00
000000
069000
242400
141400
142000
142000
142000
2A5400
241400
202000
242000
142000
202000
2A5400
201400
202000
202000
202000
202000
201400
1AA000
ENDCHAR
STARTCHAR idieresis
ENCODING 239
SWIDTH 266 0
DWIDTH 7 0
BBX 10 26 -1 0
BITMAP
050100
9599A0
815050
515450
6A1A80
000000
01A400
090900
050500
050800
050800
050800
0A9500
090500
080800
090800
050800
080800
0A9500
080500
080800
080800
080800
080800
080500
06A800
ENDCHAR
STARTCHAR eth
ENCODING 240
SWIDTH 669 0
DWIDTH 19 0
BBX 20 22 -1 -1
BITMAP
0000050000
0001AA4000
0006908000
0005802000
0002900900
0002240340
00050A0580
000A975420
0409059009
26AA851802
5000280602
500025025A
25555508A2
155BE66009
000906A424
00050A0890
0005080140
0005080900
0008052400
0008065000
0006AD8000
0000060000
ENDCHAR
STARTCHAR ntilde
ENCODING 241
SWIDTH 598 0
DWIDTH 17 0
BBX 15 28 1 0
BITMAP
002A4690
0051C820
00826820
02452480
050A0940
05214A00
0190AD00
00000000
1A400690
90B41918
50580808
50880818
50850814
50820814
A9559A58
91649418
80809414
90906814
50A02814
80A40814
A9699A98
805D0518
80860214
80820154
808140A4
80808094
80508248
6A806EA0
ENDCHAR
STARTCHAR ograve
ENCODING 242
SWIDTH 612 0
DWIDTH 17 0
BBX 17 29 0 -1
BITMAP
0000400000
0006900000
0018200000
0008200000
0002140000
0002080000
0000A00000
0000000000
0295400000
0815AAF800
0800802900
0800801800
0965402800
0949AAA500
0D48055600
19580A5600
0808050600
0814020600
1414020200
2414020200
269402A640
2020020200
2020426600
202AEA4B00
9020500740
5020500680
2E8016AA40
086AA46400
0640000000
ENDCHAR
STARTCHAR oacute
ENCODING 243
SWIDTH 612 0
DWIDTH 17 0
BBX 17 28 0 -1
BITMAP
00000A4000
0000185000
0000209000
0000920000
0000850000
0000680000
0000000000
0295400000
0815AAF800
0800802900
0800801800
0965402800
0949AAA500
0D48055600
19580A5600
0808050600
0814020600
1414020200
2414020200
269402A640
2020020200
2020426600
202AEA4B00
9020500740
5020500680
2E8016AA40
086AA46400
0640000000
ENDCHAR
STARTCHAR ocircumflex
ENCODING 244
SWIDTH 612 0
DWIDTH 17 0
BBX 17 28 0 -1
BITMAP
0002A80000
00021C0000
0008160000
0014614000
0020A08000
0022145000
001A0A4000
0295400000
0815AAF800
0800802900
0800801800
0965402800
0949AAA500
0D48055600
19580A5600
0808050600
0814020600
1414020200
2414020200
269402A640
2020020200
2020426600
202AEA4B00
9020500740
5020500680
2E8016AA40
086AA46400
0640000000
ENDCHAR
STARTCHAR otilde
ENCODING 245
SWIDTH 612 0
DWIDTH 17 0
BBX 17 28 0 -1
BITMAP
0006A0A800
0008354500
00145A0800
0061862400
0082826000
008521D000
00682B8000
0295400000
0815AAF800
0800802900
0800801800
0965402800
0949AAA500
0D48055600
19580A5600
0808050600
0814020600
1414020200
2414020200
269402A640
2020020200
2020426600
202AEA4B00
9020500740
5020500680
2E8016AA40
086AA46400
0640000000
ENDCHAR
STARTCHAR odieresis
ENCODING 246
SWIDTH 612 0
DWIDTH 17 0
BBX 17 27 0 -1
BITMAP
0014050000
0196259000
0082208000
0082208000
00A91A4000
0000000000
0295400000
0815AAF800
0800802900
0800801800
0965402800
0949AAA500
0D48055600
19580A5600
0808050600
0814020600
1414020200
2414020200
269402A640
2020020200
2020426600
202AEA4B00
9020500740
5020500680
2E8016AA40
086AA46400
0640000000
ENDCHAR
STARTCHAR divide
ENCODING 247
SWIDTH 457 0
DWIDTH 13 0
BBX 12 16 0 1
BITMAP
006640
008040
004140
006640
000400
2AAA59
600552
500502
500402
26AAAA
040000
006A40
008080
004140
009140
001900
ENDCHAR
STARTCHAR oslash
ENCODING 248
SWIDTH 612 0
DWIDTH 17 0
BBX 17 21 0 -1
BITMAP
0295404000
0815AAA800
0800820600
0800850200
0965480900
0949B42900
0D48A02600
1958999600
0809418600
0816020600
1419060200
24180A0200
26B822A640
2056220200
2080526600
2141EA4B00
9602500740
5809500680
240816AA40
081AA46400
06A0000000
ENDCHAR
STARTCHAR ugrave
ENCODING 249
SWIDTH 583 0
DWIDTH 16 0
BBX 16 28 0 -1
BITMAP
00010000
001A4000
00208000
00208000
00085000
00052000
00029000
01900190
09181918
08081408
08080818
08080818
08140808
1A580958
24581908
14140808
14200808
24200808
20200808
2A940AA5
20200905
20200A98
202BA428
50214019
90208016
2A905AA2
086A96A8
06400000
ENDCHAR
STARTCHAR uacute
ENCODING 250
SWIDTH 583 0
DWIDTH 16 0
BBX 16 28 0 -1
BITMAP
00002900
00005200
00008200
00020800
00062000
00029000
00000000
01900190
09181918
08081408
08080818
08080818
08140808
1A580958
24581908
14140808
14200808
24200808
20200808
2A940AA5
20200905
20200A98
202BA428
50214019
90208016
2A905AA2
086A96A8
06400000
ENDCHAR
STARTCHAR ucircumflex
ENCODING 251
SWIDTH 583 0
DWIDTH 16 0
BBX 16 28 0 -1
BITMAP
000AA000
00087000
00205800
00518500
00828200
00845140
00682900
01900190
09181918
08081408
08080818
08080818
08140808
1A580958
24581908
14140808
14200808
24200808
20200808
2A940AA5
20200905
20200A98
202BA428
50214019
90208016
2A905AA2
086A96A8
06400000
ENDCHAR
STARTCHAR udieresis
ENCODING 252
SWIDTH 583 0
DWIDTH 16 0
BBX 16 27 0 -1
BITMAP
00140400
02966580
01455080
01455140
00A92A00
00000000
01900190
09181918
08081408
08080818
08080818
08140808
1A580958
24581908
14140808
14200808
24200808
20200808
2A940AA5
20200905
20200A98
202BA428
50214019
90208016
2A905AA2
086A96A8
06400000
ENDCHAR
STARTCHAR yacute
ENCODING 253
SWIDTH 484 0
DWIDTH 14 0
BBX 16 25 -1 0
BITMAP
00002900
00008200
00018600
00020800
00052000
00029000
0A800AA0
20800808
90600809
60141414
18056020
0516E450
02918550
01814080
00920240
00260200
000D0500
00099800
00141800
00202400
00502000
01809000
01408000
00908000
001A4000
ENDCHAR
STARTCHAR thorn
ENCODING 254
SWIDTH 520 0
DWIDTH 15 0
BBX 14 21 1 -1
BITMAP
05000000
65900000
91500000
59A00000
641A8000
6400A400
A4008690
9A920020
80A90020
9081A450
508186D0
809A0090
95690640
95521800
80806000
80828000
80890000
80A00000
80500000
A5800000
15000000
ENDCHAR
STARTCHAR ydieresis
ENCODING 255
SWIDTH 484 0
DWIDTH 14 0
BBX 16 25 -1 0
BITMAP
00140400
0259A640
02058140
01444100
01A86A00
00000000
0A800AA0
20800808
90600809
60141414
18056020
0516E450
02918550
01814080
00920240
00260200
000D0500
00099800
00141800
00202400
00502000
01809000
01408000
00908000
001A4000
ENDCHAR
STARTCHAR Amacron
ENCODING 256
SWIDTH 507 0
DWIDTH 14 0
BBX 15 24 0 0
BITMAP
00A56000
01410800
01000800
00AAA400
00640000
01964000
0140D000
01415400
02021400
02020800
0A920800
08160900
080AA600
080A0200
08094200
141497A0
2A5E9414
20148008
20208008
20205AE4
506AA050
80502020
90502020
2A801A80
ENDCHAR
STARTCHAR amacron
ENCODING 257
SWIDTH 507 0
DWIDTH 14 0
BBX 15 24 0 0
BITMAP
00A56000
01410800
01000800
00AAA400
00640000
01964000
0140D000
01415400
02021400
02020800
0A920800
08160900
080AA600
080A0200
08094200
141497A0
2A5E9414
20148008
20208008
20205AE4
506AA050
80502020
90502020
2A801A80
ENDCHAR
STARTCHAR Abreve
ENCODING 258
SWIDTH 507 0
DWIDTH 14 0
BBX 15 27 0 0
BITMAP
01906400
05208600
05208500
02159800
02196800
02642400
006AA000
00640000
01964000
0140D000
01415400
02021400
02020800
0A920800
08160900
080AA600
080A0200
08094200
141497A0
2A5E9414
20148008
20208008
20205AE4
506AA050
80502020
90502020
2A801A80
ENDCHAR
STARTCHAR abreve
ENCODING 259
SWIDTH 507 0
DWIDTH 14 0
BBX 15 27 0 0
BITMAP
01906400
05208600
05208500
02159800
02196800
02642400
006AA000
00640000
01964000
0140D000
01415400
02021400
02020800
0A920800
08160900
080AA600
080A0200
08094200
141497A0
2A5E9414
20148008
20208008
20205AE4
506AA050
80502020
90502020
2A801A80
ENDCHAR
STARTCHAR Aogonek
ENCODING 260
SWIDTH 507 0
DWIDTH 14 0
BBX 15 26 0 -6
BITMAP
00640000
01964000
0140D000
01415400
02021400
02020800
0A920800
08160900
080AA600
080A0200
08094200
141497A0
2A5E9414
20148008
20208008
20205AE4
506AA050
80502020
90502020
2A802AD0
00002080
00006180
00002A60
00001908
00000248
000000A0
ENDCHAR
STARTCHAR aogonek
ENCODING 261
SWIDTH 507 0
DWIDTH 14 0
BBX 15 26 0 -6
BITMAP
00640000
01964000
0140D000
01415400
02021400
02020800
0A920800
08160900
080AA600
080A0200
08094200
141497A0
2A5E9414
20148008
20208008
20205AE4
506AA050
80502020
90502020
2A802AD0
00002080
00006180
00002A60
00001908
00000248
000000A0
ENDCHAR
STARTCHAR Cacute
ENCODING 262
SWIDTH 515 0
DWIDTH 14 0
BBX 15 27 0 -1
BITMAP
00001A00
00002140
00009240
00014900
00021400
0001A000
02954000
0815AAA0
08008024
08008014
09654020
0949AAA0
0D480000
19580000
08080000
08140000
14140000
24140000
26940000
20200000
20200190
202AA920
90208014
50208014
2E8056A0
086A9400
06400000
ENDCHAR
STARTCHAR cacute
ENCODING 263
SWIDTH 515 0
DWIDTH 14 0
BBX 15 27 0 -1
BITMAP
00001A00
00002140
00009240
00014900
00021400
0001A000
02954000
0815AAA0
08008024
08008014
09654020
0949AAA0
0D480000
19580000
08080000
08140000
14140000
24140000
26940000
20200000
20200190
202AA920
90208014
50208014
2E8056A0
086A9400
06400000
ENDCHAR
STARTCHAR Ccircumflex
ENCODING 264
SWIDTH 515 0
DWIDTH 14 0
BBX 15 28 0 -1
BITMAP
0002A400
00051C00
00082500
00249200
0051A080
00522080
00290A40
02954000
0815AAA0
08008024
08008014
09654020
0949AAA0
0D480000
19580000
08080000
08140000
14140000
24140000
26940000
20200000
20200190
202AA920
90208014
50208014
2E8056A0
086A9400
06400000
ENDCHAR
STARTCHAR ccircumflex
ENCODING 265
SWIDTH 515 0
DWIDTH 14 0
BBX 15 28 0 -1
BITMAP
0002A400
00051C00
00082500
00249200
0051A080
00522080
00290A40
02954000
0815AAA0
08008024
08008014
09654020
0949AAA0
0D480000
19580000
08080000
08140000
14140000
24140000
26940000
20200000
20200190
202AA920
90208014
50208014
2E8056A0
086A9400
06400000
ENDCHAR
STARTCHAR Cdotaccent
ENCODING 266
SWIDTH 515 0
DWIDTH 14 0
BBX 15 26 0 -1
BITMAP
00005000
00065800
00050800
00051400
0002A400
02954000
0815AAA0
08008024
08008014
09654020
0949AAA0
0D480000
19580000
08080000
08140000
14140000
24140000
26940000
20200000
20200190
202AA920
90208014
50208014
2E8056A0
086A9400
06400000
ENDCHAR
STARTCHAR cdotaccent
ENCODING 267
SWIDTH 515 0
DWIDTH 14 0
BBX 15 26 0 -1
BITMAP
00005000
00065800
00050800
00051400
0002A400
02954000
0815AAA0
08008024
08008014
09654020
0949AAA0
0D480000
19580000
08080000
08140000
14140000
24140000
26940000
20200000
20200190
202AA920
90208014
50208014
2E8056A0
086A9400
06400000
ENDCHAR
STARTCHAR Ccaron
ENCODING 268
SWIDTH 515 0
DWIDTH 14 0
BBX 15 29 0 -1
BITMAP
00040000
00661A40
00822080
00209180
00148200
00082800
00082800
0002A000
02954000
0815AAA0
08008024
08008014
09654020
0949AAA0
0D480000
19580000
08080000
08140000
14140000
24140000
26940000
20200000
20200190
202AA920
90208014
50208014
2E8056A0
086A9400
06400000
ENDCHAR
STARTCHAR ccaron
ENCODING 269
SWIDTH 515 0
DWIDTH 14 0
BBX 15 29 0 -1
BITMAP
00040000
00661A40
00822080
00209180
00148200
00082800
00082800
0002A000
02954000
0815AAA0
08008024
08008014
09654020
0949AAA0
0D480000
19580000
08080000
08140000
14140000
24140000
26940000
20200000
20200190
202AA920
90208014
50208014
2E8056A0
086A9400
06400000
ENDCHAR
STARTCHAR Dcaron
ENCODING 270
SWIDTH 520 0
DWIDTH 15 0
BBX 14 29 1 -1
BITMAP
09926000
08220800
05282400
02085000
01458000
00874000
00690000
00500000
1A600000
98080000
58060000
58019000
52403000
50909800
A9754600
91590190
80828020
90806060
50807590
80818920
A95A0090
806A4200
80A08800
80802400
80809000
80824000
80590000
6A940000
00600000
ENDCHAR
STARTCHAR dcaron
ENCODING 271
SWIDTH 520 0
DWIDTH 15 0
BBX 14 29 1 -1
BITMAP
09926000
08220800
05282400
02085000
01458000
00874000
00690000
00500000
1A600000
98080000
58060000
58019000
52403000
50909800
A9754600
91590190
80828020
90806060
50807590
80818920
A95A0090
806A4200
80A08800
80802400
80809000
80824000
80590000
6A940000
00600000
ENDCHAR
STARTCHAR Dcroat
ENCODING 272
SWIDTH 669 0
DWIDTH 19 0
BBX 20 22 -1 -1
BITMAP
0000050000
0001AA4000
0006908000
0005802000
0002900900
0002240340
00050A0580
000A975420
0409059009
26AA851802
5000280602
500025025A
25555508A2
155BE66009
000906A424
00050A0890
0005080140
0005080900
0008052400
0008065000
0006AD8000
0000060000
ENDCHAR
STARTCHAR dcroat
ENCODING 273
SWIDTH 669 0
DWIDTH 19 0
BBX 20 22 -1 -1
BITMAP
0000050000
0001AA4000
0006908000
0005802000
0002900900
0002240340
00050A0580
000A975420
0409059009
26AA851802
5000280602
500025025A
25555508A2
155BE66009
000906A424
00050A0890
0005080140
0005080900
0008052400
0008065000
0006AD8000
0000060000
ENDCHAR
STARTCHAR Emacron
ENCODING 274
SWIDTH 490 0
DWIDTH 14 0
BBX 13 25 1 0
BITMAP
02958000
08145000
08002000
06AA9000
00000000
1A450500
90AAA640
50520080
50820080
50955640
509A5500
A9500000
91500000
80AAA000
90802000
50802000
80942000
A9669000
80500000
80950000
809AAA00
80850200
80840140
80655200
6A955900
ENDCHAR
STARTCHAR emacron
ENCODING 275
SWIDTH 490 0
DWIDTH 14 0
BBX 13 25 1 0
BITMAP
02958000
08145000
08002000
06AA9000
00000000
1A450500
90AAA640
50520080
50820080
50955640
509A5500
A9500000
91500000
80AAA000
90802000
50802000
80942000
A9669000
80500000
80950000
809AAA00
80850200
80840140
80655200
6A955900
ENDCHAR
STARTCHAR Ebreve
ENCODING 276
SWIDTH 490 0
DWIDTH 14 0
BBX 13 27 1 0
BITMAP
06809000
08515800
08120800
08265400
05256000
06607000
01AA8000
1A450500
90AAA640
50520080
50820080
50955640
509A5500
A9500000
91500000
80AAA000
90802000
50802000
80942000
A9669000
80500000
80950000
809AAA00
80850200
80840140
80655200
6A955900
ENDCHAR
STARTCHAR ebreve
ENCODING 277
SWIDTH 490 0
DWIDTH 14 0
BBX 13 27 1 0
BITMAP
06809000
08515800
08120800
08265400
05256000
06607000
01AA8000
1A450500
90AAA640
50520080
50820080
50955640
509A5500
A9500000
91500000
80AAA000
90802000
50802000
80942000
A9669000
80500000
80950000
809AAA00
80850200
80840140
80655200
6A955900
ENDCHAR
STARTCHAR Edotaccent
ENCODING 278
SWIDTH 490 0
DWIDTH 14 0
BBX 13 26 1 0
BITMAP
00140000
01960000
00820000
00820000
00A90000
00000000
1A450500
90AAA640
50520080
50820080
50955640
509A5500
A9500000
91500000
80AAA000
90802000
50802000
80942000
A9669000
80500000
80950000
809AAA00
80850200
80840140
80655200
6A955900
ENDCHAR
STARTCHAR edotaccent
ENCODING 279
SWIDTH 490 0
DWIDTH 14 0
BBX 13 26 1 0
BITMAP
00140000
01960000
00820000
00820000
00A90000
00000000
1A450500
90AAA640
50520080
50820080
50955640
509A5500
A9500000
91500000
80AAA000
90802000
50802000
80942000
A9669000
80500000
80950000
809AAA00
80850200
80840140
80655200
6A955900
ENDCHAR
STARTCHAR Eogonek
ENCODING 280
SWIDTH 490 0
DWIDTH 14 0
BBX 13 26 1 -6
BITMAP
1A450500
90AAA640
50520080
50820080
50955640
509A5500
A9500000
91500000
80AAA000
90802000
50802000
80942000
A9669000
80500000
80950000
809AAA00
80850200
80840140
80655200
6A966900
00052000
00082000
00069900
00024140
00006200
00001900
ENDCHAR
STARTCHAR eogonek
ENCODING 281
SWIDTH 490 0
DWIDTH 14 0
BBX 13 26 1 -6
BITMAP
1A450500
90AAA640
50520080
50820080
50955640
509A5500
A9500000
91500000
80AAA000
90802000
50802000
80942000
A9669000
80500000
80950000
809AAA00
80850200
80840140
80655200
6A966900
00052000
00082000
00069900
00024140
00006200
00001900
ENDCHAR
STARTCHAR Ecaron
ENCODING 282
SWIDTH 490 0
DWIDTH 14 0
BBX 13 28 1 0
BITMAP
00400000
0661A400
08220800
06191400
02482000
00828000
00824000
006A0000
1A450500
90AAA640
50520080
50820080
50955640
509A5500
A9500000
91500000
80AAA000
90802000
50802000
80942000
A9669000
80500000
80950000
809AAA00
80850200
80840140
80655200
6A955900
ENDCHAR
STARTCHAR ecaron
ENCODING 283
SWIDTH 490 0
DWIDTH 14 0
BBX 13 28 1 0
BITMAP
00400000
0661A400
08220800
06191400
02482000
00828000
00824000
006A0000
1A450500
90AAA640
50520080
50820080
50955640
509A5500
A9500000
91500000
80AAA000
90802000
50802000
80942000
A9669000
80500000
80950000
809AAA00
80850200
80840140
80655200
6A955900
ENDCHAR
STARTCHAR Gcircumflex
ENCODING 284
SWIDTH 557 0
DWIDTH 16 0
BBX 16 28 0 -1
BITMAP
0002A000
00082800
00182800
00208200
00819180
00822080
00281A00
02954000
0815AAA0
08008024
08008014
09654020
0949AAA0
0D480000
19580000
08080190
08140918
14140808
24140804
26940808
20200998
20200908
202AA808
90208808
50208808
2E805809
086A96A4
06400000
ENDCHAR
STARTCHAR gcircumflex
ENCODING 285
SWIDTH 557 0
DWIDTH 16 0
BBX 16 28 0 -1
BITMAP
0002A000
00082800
00182800
00208200
00819180
00822080
00281A00
02954000
0815AAA0
08008024
08008014
09654020
0949AAA0
0D480000
19580000
08080190
08140918
14140808
24140804
26940808
20200998
20200908
202AA808
90208808
50208808
2E805809
086A96A4
06400000
ENDCHAR
STARTCHAR Gbreve
ENCODING 286
SWIDTH 557 0
DWIDTH 16 0
BBX 16 28 0 -1
BITMAP
00680900
01852580
00852080
00866540
00825A00
00650600
001AA800
02954000
0815AAA0
08008024
08008014
09654020
0949AAA0
0D480000
19580000
08080190
08140918
14140808
24140804
26940808
20200998
20200908
202AA808
90208808
50208808
2E805809
086A96A4
06400000
ENDCHAR
STARTCHAR gbreve
ENCODING 287
SWIDTH 557 0
DWIDTH 16 0
BBX 16 28 0 -1
BITMAP
00680900
01852580
00852080
00866540
00825A00
00650600
001AA800
02954000
0815AAA0
08008024
08008014
09654020
0949AAA0
0D480000
19580000
08080190
08140918
14140808
24140804
26940808
20200998
20200908
202AA808
90208808
50208808
2E805809
086A96A4
06400000
ENDCHAR
STARTCHAR Gdotaccent
ENCODING 288
SWIDTH 557 0
DWIDTH 16 0
BBX 16 27 0 -1
BITMAP
00005000
00065800
00050800
00020800
0002A400
00000000
02954000
0815AAA0
08008024
08008014
09654020
0949AAA0
0D480000
19580000
08080190
08140918
14140808
24140804
26940808
20200998
20200908
202AA808
90208808
50208808
2E805809
086A96A4
06400000
ENDCHAR
STARTCHAR gdotaccent
ENCODING 289
SWIDTH 557 0
DWIDTH 16 0
BBX 16 27 0 -1
BITMAP
00005000
00065800
00050800
00020800
0002A400
00000000
02954000
0815AAA0
08008024
08008014
09654020
0949AAA0
0D480000
19580000
08080190
08140918
14140808
24140804
26940808
20200998
20200908
202AA808
90208808
50208808
2E805809
086A96A4
06400000
ENDCHAR
STARTCHAR Gcommaaccent
ENCODING 290
SWIDTH 557 0
DWIDTH 16 0
BBX 16 27 0 -7
BITMAP
02954000
0815AAA0
08008024
08008014
09654020
0949AAA0
0D480000
19580000
08080190
08140918
14140808
24140804
26940808
20200998
20200908
202AA808
90208808
50208808
2E805809
086A96A4
06400000
00068000
00082000
00146000
00218000
00820000
00680000
ENDCHAR
STARTCHAR gcommaaccent
ENCODING 291
SWIDTH 557 0
DWIDTH 16 0
BBX 16 27 0 -7
BITMAP
02954000
0815AAA0
08008024
08008014
09654020
0949AAA0
0D480000
19580000
08080190
08140918
14140808
24140804
26940808
20200998
20200908
202AA808
90208808
50208808
2E805809
086A96A4
06400000
00068000
00082000
00146000
00218000
00820000
00680000
ENDCHAR
STARTCHAR Hcircumflex
ENCODING 292
SWIDTH 611 0
DWIDTH 17 0
BBX 16 27 1 0
BITMAP
000A8000
0020A000
0020A000
00820800
02054600
02088200
00A06800
1A400A90
90902418
50502018
50802414
50801424
50801424
A9502554
90502554
80802020
90801428
508019A6
80916902
A9794502
80580416
808816A4
8096A420
80942020
80802014
80502024
6A801A90
ENDCHAR
STARTCHAR hcircumflex
ENCODING 293
SWIDTH 611 0
DWIDTH 17 0
BBX 16 27 1 0
BITMAP
000A8000
0020A000
0020A000
00820800
02054600
02088200
00A06800
1A400A90
90902418
50502018
50802414
50801424
50801424
A9502554
90502554
80802020
90801428
508019A6
80916902
A9794502
80580416
808816A4
8096A420
80942020
80802014
80502024
6A801A90
ENDCHAR
STARTCHAR Hbar
ENCODING 294
SWIDTH 706 0
DWIDTH 20 0
BBX 19 20 1 0
BITMAP
02A001A900
0918060240
0808020200
1808024200
980EAAEAA4
480D008008
4E98008008
9809555514
18095696A0
0808020340
0808026950
08081A8020
0E9B908020
0809408590
080945A640
0809A64200
080D420200
1408050200
1408050200
0AA402A900
ENDCHAR
STARTCHAR hbar
ENCODING 295
SWIDTH 706 0
DWIDTH 20 0
BBX 19 20 1 0
BITMAP
02A001A900
0918060240
0808020200
1808024200
980EAAEAA4
480D008008
4E98008008
9809555514
18095696A0
0808020340
0808026950
08081A8020
0E9B908020
0809408590
080945A640
0809A64200
080D420200
1408050200
1408050200
0AA402A900
ENDCHAR
STARTCHAR Itilde
ENCODING 296
SWIDTH 266 0
DWIDTH 7 0
BBX 12 27 -2 0
BITMAP
02A469
051C82
082682
245248
50A094
5214A0
190AD0
006900
024240
014140
014200
014200
014200
02A540
024140
020200
024200
014200
020200
02A540
020140
020200
020200
020200
020200
020140
01AA00
ENDCHAR
STARTCHAR itilde
ENCODING 297
SWIDTH 266 0
DWIDTH 7 0
BBX 12 27 -2 0
BITMAP
02A469
051C82
082682
245248
50A094
5214A0
190AD0
006900
024240
014140
014200
014200
014200
02A540
024140
020200
024200
014200
020200
02A540
020140
020200
020200
020200
020200
020140
01AA00
ENDCHAR
STARTCHAR Imacron
ENCODING 298
SWIDTH 266 0
DWIDTH 7 0
BBX 8 24 0 0
BITMAP
2958
8145
8002
6AA8
0690
2424
1414
1420
1420
1420
2A54
2414
2020
2420
1420
2020
2A54
2014
2020
2020
2020
2020
2014
1AA0
ENDCHAR
STARTCHAR imacron
ENCODING 299
SWIDTH 266 0
DWIDTH 7 0
BBX 8 24 0 0
BITMAP
2958
8145
8002
6AA8
0690
2424
1414
1420
1420
1420
2A54
2414
2020
2420
1420
2020
2A54
2014
2020
2020
2020
2020
2014
1AA0
ENDCHAR
STARTCHAR Ibreve
ENCODING 300
SWIDTH 266 0
DWIDTH 7 0
BBX 10 27 -1 0
BITMAP
190640
520860
120850
215980
219680
264240
06AA00
01A400
090900
050500
050800
050800
050800
0A9500
090500
080800
090800
050800
080800
0A9500
080500
080800
080800
080800
080800
080500
06A800
ENDCHAR
STARTCHAR ibreve
ENCODING 301
SWIDTH 266 0
DWIDTH 7 0
BBX 10 27 -1 0
BITMAP
190640
520860
120850
215980
219680
264240
06AA00
01A400
090900
050500
050800
050800
050800
0A9500
090500
080800
090800
050800
080800
0A9500
080500
080800
080800
080800
080800
080500
06A800
ENDCHAR
STARTCHAR Iogonek
ENCODING 302
SWIDTH 266 0
DWIDTH 7 0
BBX 7 27 0 -7
BITMAP
0690
2424
1414
1420
1420
1420
2A54
2414
2020
2420
1420
2020
2A54
2014
2020
2020
2020
2020
2014
2AA0
2080
2140
9240
3964
1908
0264
0090
ENDCHAR
STARTCHAR iogonek
ENCODING 303
SWIDTH 266 0
DWIDTH 7 0
BBX 7 27 0 -7
BITMAP
0690
2424
1414
1420
1420
1420
2A54
2414
2020
2420
1420
2020
2A54
2014
2020
2020
2020
2020
2014
2AA0
2080
2140
9240
3964
1908
0264
0090
ENDCHAR
STARTCHAR Idotaccent
ENCODING 304
SWIDTH 266 0
DWIDTH 7 0
BBX 6 26 1 0
BITMAP
0500
6580
5080
2080
2A40
0000
1A40
9090
5050
5080
5080
5080
A950
9050
8080
9080
5080
8080
A950
8050
8080
8080
8080
8080
8050
6A80
ENDCHAR
STARTCHAR dotlessi
ENCODING 305
SWIDTH 266 0
DWIDTH 7 0
BBX 6 20 1 0
BITMAP
1A40
9090
5050
5080
5080
5080
A950
9050
8080
9080
5080
8080
A950
8050
8080
8080
8080
8080
8050
6A80
ENDCHAR
STARTCHAR IJ
ENCODING 306
SWIDTH 750 0
DWIDTH 21 0
BBX 19 21 1 -1
BITMAP
1A40000190
9090000918
5050000808
5080000808
5080000808
5080000808
A950000A98
9050001808
8080000808
9080100808
5082A40808
8089080808
A958060E98
805A018808
8081826808
8080982808
8080300908
8080180248
8050060208
6A800147A4
000000A800
ENDCHAR
STARTCHAR ij
ENCODING 307
SWIDTH 749 0
DWIDTH 21 0
BBX 19 21 1 -1
BITMAP
1A40000190
9090000918
5050000808
5080000808
5080000808
5080000808
A950000A98
9050001808
8080000808
9080100808
5082A40808
8089080808
A958060E98
805A018808
8081826808
8080982808
8080300908
8080180248
8050060208
6A800147A4
000000A800
ENDCHAR
STARTCHAR Jcircumflex
ENCODING 308
SWIDTH 484 0
DWIDTH 14 0
BBX 15 28 -1 -1
BITMAP
00002A40
000021C0
00008260
00014624
00060A08
00022148
000190A4
00001A40
00006060
00005020
00002050
00002050
00005050
0000A950
00009050
00005050
01005080
1A805080
20505050
5024AA60
24099050
09169090
0290D080
01806080
00901850
00240850
00082A80
00069000
ENDCHAR
STARTCHAR jcircumflex
ENCODING 309
SWIDTH 482 0
DWIDTH 14 0
BBX 15 28 -1 -1
BITMAP
00002A40
000021C0
00008260
00014624
00060A08
00022148
000190A4
00001A40
00006060
00005020
00002050
00002050
00005050
0000A950
00009050
00005050
01005080
1A805080
20505050
5024AA60
24099050
09169090
0290D080
01806080
00901850
00240850
00082A80
00069000
ENDCHAR
STARTCHAR Kcommaaccent
ENCODING 310
SWIDTH 541 0
DWIDTH 15 0
BBX 15 27 1 -7
BITMAP
1A400000
90900A80
50501860
50802014
50818024
50874090
A9599240
91641600
80A00800
90807000
5080A000
80A24800
A9560900
806D6600
80A34200
80820140
80818080
80808060
80508090
6A806A40
00000000
002A0000
00214000
00824000
01490000
02140000
01A00000
ENDCHAR
STARTCHAR kcommaaccent
ENCODING 311
SWIDTH 541 0
DWIDTH 15 0
BBX 15 27 1 -7
BITMAP
1A400000
90900A80
50501860
50802014
50818024
50874090
A9599240
91641600
80A00800
90807000
5080A000
80A24800
A9560900
806D6600
80A34200
80820140
80818080
80808060
80508090
6A806A40
00000000
002A0000
00214000
00824000
01490000
02140000
01A00000
ENDCHAR
STARTCHAR kgreenlandic
ENCODING 312
SWIDTH 541 0
DWIDTH 15 0
BBX 15 20 1 0
BITMAP
1A400000
90900A80
50501860
50802014
50818024
50874090
A9599240
91641600
80A00800
90807000
5080A000
80A24800
A9560900
806D6600
80A34200
80820140
80818080
80808060
80508090
6A806A40
ENDCHAR
STARTCHAR Lacute
ENCODING 313
SWIDTH 467 0
DWIDTH 13 0
BBX 13 26 1 0
BITMAP
00290000
00520000
00820000
02080000
05200000
02900000
1A400000
90900000
50500000
50800000
50800000
50800000
A9500000
90500000
80800000
90800000
50800000
80800000
A9500000
80500000
80900000
80AAAA00
80880180
80980080
80554140
6AA96A00
ENDCHAR
STARTCHAR lacute
ENCODING 314
SWIDTH 467 0
DWIDTH 13 0
BBX 13 26 1 0
BITMAP
00290000
00520000
00820000
02080000
05200000
02900000
1A400000
90900000
50500000
50800000
50800000
50800000
A9500000
90500000
80800000
90800000
50800000
80800000
A9500000
80500000
80900000
80AAAA00
80880180
80980080
80554140
6AA96A00
ENDCHAR
STARTCHAR Lcommaaccent
ENCODING 315
SWIDTH 467 0
DWIDTH 13 0
BBX 13 27 1 -7
BITMAP
1A400000
90900000
50500000
50800000
50800000
50800000
A9500000
90500000
80800000
90800000
50800000
80800000
A9500000
80500000
80900000
80AAAA00
80880180
80980080
80554140
6AA96A00
00000000
00A40000
01850000
02090000
05240000
08500000
06800000
ENDCHAR
STARTCHAR lcommaaccent
ENCODING 316
SWIDTH 467 0
DWIDTH 13 0
BBX 13 27 1 -7
BITMAP
1A400000
90900000
50500000
50800000
50800000
50800000
A9500000
90500000
80800000
90800000
50800000
80800000
A9500000
80500000
80900000
80AAAA00
80880180
80980080
80554140
6AA96A00
00000000
00A40000
01850000
02090000
05240000
08500000
06800000
ENDCHAR
STARTCHAR Lcaron
ENCODING 317
SWIDTH 467 0
DWIDTH 13 0
BBX 13 22 1 0
BITMAP
00002400
00008900
1A418200
90920800
50592000
50899000
50814000
50800000
A9500000
90500000
80800000
90800000
50800000
80800000
A9500000
80500000
80900000
80AAAA00
80880180
80980080
80554140
6AA96A00
ENDCHAR
STARTCHAR lcaron
ENCODING 318
SWIDTH 467 0
DWIDTH 13 0
BBX 13 22 1 0
BITMAP
00002400
00008900
1A418200
90920800
50592000
50899000
50814000
50800000
A9500000
90500000
80800000
90800000
50800000
80800000
A9500000
80500000
80900000
80AAAA00
80880180
80980080
80554140
6AA96A00
ENDCHAR
STARTCHAR Ldot
ENCODING 319
SWIDTH 611 0
DWIDTH 17 0
BBX 16 20 1 0
BITMAP
1A400000
90900000
50500000
50800000
50800000
50800000
A9500000
90500054
80800249
90800208
50800208
808001A8
A9500000
80500000
80900000
80AAAA00
80880180
80980080
80554140
6AA96A00
ENDCHAR
STARTCHAR ldotaccent
ENCODING 320
SWIDTH 611 0
DWIDTH 17 0
BBX 16 20 1 0
BITMAP
1A400000
90900000
50500000
50800000
50800000
50800000
A9500000
90500054
80800249
90800208
50800208
808001A8
A9500000
80500000
80900000
80AAAA00
80880180
80980080
80554140
6AA96A00
ENDCHAR
STARTCHAR Lslash
ENCODING 321
SWIDTH 505 0
DWIDTH 14 0
BBX 16 20 -1 0
BITMAP
00690000
01418000
01414000
01414000
01420000
01424000
02A54000
0245A400
16424800
61420500
51420900
6242A400
26A54000
06014000
02425010
0142BA98
02022005
02026005
02015558
01AAA554
ENDCHAR
STARTCHAR lslash
ENCODING 322
SWIDTH 505 0
DWIDTH 14 0
BBX 16 20 -1 0
BITMAP
00690000
01418000
01414000
01414000
01420000
01424000
02A54000
0245A400
16424800
61420500
51420900
6242A400
26A54000
06014000
02425010
0142BA98
02022005
02026005
02015558
01AAA554
ENDCHAR
STARTCHAR Nacute
ENCODING 323
SWIDTH 598 0
DWIDTH 17 0
BBX 15 26 1 0
BITMAP
00006800
00008200
00014600
00021800
00082000
00028000
1A400690
90B41918
50580808
50880818
50850814
50820814
A9559A58
91649418
80809414
90906814
50A02814
80A40814
A9699A98
805D0518
80860214
80820154
808140A4
80808094
80508248
6A806EA0
ENDCHAR
STARTCHAR nacute
ENCODING 324
SWIDTH 598 0
DWIDTH 17 0
BBX 15 26 1 0
BITMAP
00006800
00008200
00014600
00021800
00082000
00028000
1A400690
90B41918
50580808
50880818
50850814
50820814
A9559A58
91649418
80809414
90906814
50A02814
80A40814
A9699A98
805D0518
80860214
80820154
808140A4
80808094
80508248
6A806EA0
ENDCHAR
STARTCHAR Ncommaaccent
ENCODING 325
SWIDTH 598 0
DWIDTH 17 0
BBX 15 27 1 -7
BITMAP
1A400690
90B41918
50580808
50880818
50850814
50820814
A9559A58
91649418
80809414
90906814
50A02814
80A40814
A9699A98
805D0518
80860214
80820154
808140A4
80808094
80508248
6A806EA0
00000000
000A4000
00148000
00208000
00820000
01890000
00A40000
ENDCHAR
STARTCHAR ncommaaccent
ENCODING 326
SWIDTH 598 0
DWIDTH 17 0
BBX 15 27 1 -7
BITMAP
1A400690
90B41918
50580808
50880818
50850814
50820814
A9559A58
91649418
80809414
90906814
50A02814
80A40814
A9699A98
805D0518
80860214
80820154
808140A4
80808094
80508248
6A806EA0
00000000
000A4000
00148000
00208000
00820000
01890000
00A40000
ENDCHAR
STARTCHAR Ncaron
ENCODING 327
SWIDTH 598 0
DWIDTH 17 0
BBX 15 28 1 0
BITMAP
00100000
00986900
01448200
00828600
00514800
0020A400
0014A000
000A8000
1A400690
90B41918
50580808
50880818
50850814
50820814
A9559A58
91649418
80809414
90906814
50A02814
80A40814
A9699A98
805D0518
80860214
80820154
808140A4
80808094
80508248
6A806EA0
ENDCHAR
STARTCHAR ncaron
ENCODING 328
SWIDTH 598 0
DWIDTH 17 0
BBX 15 28 1 0
BITMAP
00100000
00986900
01448200
00828600
00514800
0020A400
0014A000
000A8000
1A400690
90B41918
50580808
50880818
50850814
50820814
A9559A58
91649418
80809414
90906814
50A02814
80A40814
A9699A98
805D0518
80860214
80820154
808140A4
80808094
80508248
6A806EA0
ENDCHAR
STARTCHAR napostrophe
ENCODING 329
SWIDTH 807 0
DWIDTH 23 0
BBX 22 20 0 0
BITMAP
064069001A40
089246D06060
146201505020
208142202050
820142242050
990202085050
14026655A950
000246929150
000202025050
000202019090
000202809090
000202802050
0003A69A6960
000202342450
000202140850
000202080980
000202050280
000202020250
000602420950
0002A901BA80
ENDCHAR
STARTCHAR Eng
ENCODING 330
SWIDTH 595 0
DWIDTH 17 0
BBX 15 28 1 -8
BITMAP
1A400000
90B40AA4
50581408
50880808
50850814
50820814
99558814
91649414
8080AE98
90907414
90A02414
80A40814
A9599814
805D0514
80860248
80820198
80814094
808080A4
80508254
6A806914
00002A14
001BA488
0AA200A4
08014050
14005A80
08169000
06A40000
01000000
ENDCHAR
STARTCHAR eng
ENCODING 331
SWIDTH 595 0
DWIDTH 17 0
BBX 15 28 1 -8
BITMAP
1A400000
90B40AA4
50581408
50880808
50850814
50820814
99558814
91649414
8080AE98
90907414
90A02414
80A40814
A9599814
805D0514
80860248
80820198
80814094
808080A4
80508254
6A806914
00002A14
001BA488
0AA200A4
08014050
14005A80
08169000
06A40000
01000000
ENDCHAR
STARTCHAR Omacron
ENCODING 332
SWIDTH 612 0
DWIDTH 17 0
BBX 17 25 0 -1
BITMAP
000A5A0000
0020514000
0020004000
001AAA0000
0295400000
0815AAF800
0800802900
0800801800
0965402800
0949AAA500
0D48055600
19580A5600
0808050600
0814020600
1414020200
2414020200
269402A640
2020020200
2020426600
202AEA4B00
9020500740
5020500680
2E8016AA40
086AA46400
0640000000
ENDCHAR
STARTCHAR omacron
ENCODING 333
SWIDTH 612 0
DWIDTH 17 0
BBX 17 25 0 -1
BITMAP
000A5A0000
0020514000
0020004000
001AAA0000
0295400000
0815AAF800
0800802900
0800801800
0965402800
0949AAA500
0D48055600
19580A5600
0808050600
0814020600
1414020200
2414020200
269402A640
2020020200
2020426600
202AEA4B00
9020500740
5020500680
2E8016AA40
086AA46400
0640000000
ENDCHAR
STARTCHAR Obreve
ENCODING 334
SWIDTH 612 0
DWIDTH 17 0
BBX 17 28 0 -1
BITMAP
0029064000
0092089000
0052045000
0012698000
0021568000
0026034000
000AA90000
0295400000
0815AAF800
0800802900
0800801800
0965402800
0949AAA500
0D48055600
19580A5600
0808050600
0814020600
1414020200
2414020200
269402A640
2020020200
2020426600
202AEA4B00
9020500740
5020500680
2E8016AA40
086AA46400
0640000000
ENDCHAR
STARTCHAR obreve
ENCODING 335
SWIDTH 612 0
DWIDTH 17 0
BBX 17 28 0 -1
BITMAP
0029064000
0092089000
0052045000
0012698000
0021568000
0026034000
000AA90000
0295400000
0815AAF800
0800802900
0800801800
0965402800
0949AAA500
0D48055600
19580A5600
0808050600
0814020600
1414020200
2414020200
269402A640
2020020200
2020426600
202AEA4B00
9020500740
5020500680
2E8016AA40
086AA46400
0640000000
ENDCHAR
STARTCHAR Ohungarumlaut
ENCODING 336
SWIDTH 612 0
DWIDTH 17 0
BBX 17 27 0 -1
BITMAP
0000A46800
0001488500
00020A4900
0008251400
0014886000
000A468000
0295400000
0815AAF800
0800802900
0800801800
0965402800
0949AAA500
0D48055600
19580A5600
0808050600
0814020600
1414020200
2414020200
269402A640
2020020200
2020426600
202AEA4B00
9020500740
5020500680
2E8016AA40
086AA46400
0640000000
ENDCHAR
STARTCHAR ohungarumlaut
ENCODING 337
SWIDTH 612 0
DWIDTH 17 0
BBX 17 27 0 -1
BITMAP
0000A46800
0001488500
00020A4900
0008251400
0014886000
000A468000
0295400000
0815AAF800
0800802900
0800801800
0965402800
0949AAA500
0D48055600
19580A5600
0808050600
0814020600
1414020200
2414020200
269402A640
2020020200
2020426600
202AEA4B00
9020500740
5020500680
2E8016AA40
086AA46400
0640000000
ENDCHAR
STARTCHAR OE
ENCODING 338
SWIDTH 831 0
DWIDTH 23 0
BBX 23 21 0 -1
BITMAP
029540A45010
0815ABE76A98
080080261408
080080161008
096540265558
0949ABA26554
0D4806A20000
195806020000
08080203AA00
081402060140
141402060080
241402025140
269406A65A00
202006020000
202007965000
203AE9266AA4
902080252008
502080222008
2E805AA25514
086AA6A955A0
064000000000
ENDCHAR
STARTCHAR oe
ENCODING 339
SWIDTH 831 0
DWIDTH 23 0
BBX 23 21 0 -1
BITMAP
029540A45010
0815ABE76A98
080080261408
080080161008
096540265558
0949ABA26554
0D4806A20000
195806020000
08080203AA00
081402060140
141402060080
241402025140
269406A65A00
202006020000
202007965000
203AE9266AA4
902080252008
502080222008
2E805AA25514
086AA6A955A0
064000000000
ENDCHAR
STARTCHAR Racute
ENCODING 340
SWIDTH 532 0
DWIDTH 15 0
BBX 14 27 1 -1
BITMAP
0000A400
00014500
00020800
00092000
00085000
010A8000
0A900000
781A4000
A400E000
64008A90
5A820020
50A90020
8086A050
EA509AC0
809A0190
80A99240
90992800
80941400
90580800
96590600
80A26600
80828140
80808090
80805020
80502020
91801580
19000500
ENDCHAR
STARTCHAR racute
ENCODING 341
SWIDTH 532 0
DWIDTH 15 0
BBX 14 27 1 -1
BITMAP
0000A400
00014500
00020800
00092000
00085000
010A8000
0A900000
781A4000
A400E000
64008A90
5A820020
50A90020
8086A050
EA509AC0
809A0190
80A99240
90992800
80941400
90580800
96590600
80A26600
80828140
80808090
80805020
80502020
91801580
19000500
ENDCHAR
STARTCHAR Rcommaaccent
ENCODING 342
SWIDTH 532 0
DWIDTH 15 0
BBX 14 28 1 -7
BITMAP
01000000
0A900000
781A4000
A400E000
64008A90
5A820020
50A90020
8086A050
EA509AC0
809A0190
80A99240
90992800
80941400
90580800
96590600
80A26600
80828140
80808090
80805020
80502020
91801580
19000500
00290000
00520000
00820000
02480000
06240000
02A00000
ENDCHAR
STARTCHAR rcommaaccent
ENCODING 343
SWIDTH 532 0
DWIDTH 15 0
BBX 14 28 1 -7
BITMAP
01000000
0A900000
781A4000
A400E000
64008A90
5A820020
50A90020
8086A050
EA509AC0
809A0190
80A99240
90992800
80941400
90580800
96590600
80A26600
80828140
80808090
80805020
80502020
91801580
19000500
00290000
00520000
00820000
02480000
06240000
02A00000
ENDCHAR
STARTCHAR Rcaron
ENCODING 344
SWIDTH 532 0
DWIDTH 15 0
BBX 14 29 1 -1
BITMAP
00400000
0260A800
05160800
020A0800
01452000
00825000
00528000
012A4000
0A900000
781A4000
A400E000
64008A90
5A820020
50A90020
8086A050
EA509AC0
809A0190
80A99240
90992800
80941400
90580800
96590600
80A26600
80828140
80808090
80805020
80502020
91801580
19000500
ENDCHAR
STARTCHAR rcaron
ENCODING 345
SWIDTH 532 0
DWIDTH 15 0
BBX 14 29 1 -1
BITMAP
00400000
0260A800
05160800
020A0800
01452000
00825000
00528000
012A4000
0A900000
781A4000
A400E000
64008A90
5A820020
50A90020
8086A050
EA509AC0
809A0190
80A99240
90992800
80941400
90580800
96590600
80A26600
80828140
80808090
80805020
80502020
91801580
19000500
ENDCHAR
STARTCHAR Sacute
ENCODING 346
SWIDTH 442 0
DWIDTH 12 0
BBX 13 28 0 -1
BITMAP
00029000
00092000
00086000
00208000
00520000
00290000
00000000
00156900
2A994200
2A880200
60840200
8066A900
20240000
14080000
08150000
06920000
03024000
01808000
00902000
0022A000
00281800
00080900
26B90200
94220140
80154600
8016E800
56A90000
14000000
ENDCHAR
STARTCHAR sacute
ENCODING 347
SWIDTH 442 0
DWIDTH 12 0
BBX 13 28 0 -1
BITMAP
00029000
00092000
00086000
00208000
00520000
00290000
00000000
00156900
2A994200
2A880200
60840200
8066A900
20240000
14080000
08150000
06920000
03024000
01808000
00902000
0022A000
00281800
00080900
26B90200
94220140
80154600
8016E800
56A90000
14000000
ENDCHAR
STARTCHAR Scircumflex
ENCODING 348
SWIDTH 442 0
DWIDTH 12 0
BBX 13 29 0 -1
BITMAP
006A0000
00834000
01458000
06086000
08282400
08521400
0682A000
00000000
00156900
2A994200
2A880200
60840200
8066A900
20240000
14080000
08150000
06920000
03024000
01808000
00902000
0022A000
00281800
00080900
26B90200
94220140
80154600
8016E800
56A90000
14000000
ENDCHAR
STARTCHAR scircumflex
ENCODING 349
SWIDTH 442 0
DWIDTH 12 0
BBX 13 29 0 -1
BITMAP
006A0000
00834000
01458000
06086000
08282400
08521400
0682A000
00000000
00156900
2A994200
2A880200
60840200
8066A900
20240000
14080000
08150000
06920000
03024000
01808000
00902000
0022A000
00281800
00080900
26B90200
94220140
80154600
8016E800
56A90000
14000000
ENDCHAR
STARTCHAR Scedilla
ENCODING 350
SWIDTH 442 0
DWIDTH 12 0
BBX 13 26 0 -6
BITMAP
00156900
2A994200
2A880200
60840200
8066A900
20240000
14080000
08150000
06920000
03024000
01808000
00902000
0022A000
00281800
00080900
26B90200
94220140
80154600
8016E800
56A98000
14048000
00148000
02A98000
05064000
05290000
01800000
ENDCHAR
STARTCHAR scedilla
ENCODING 351
SWIDTH 442 0
DWIDTH 12 0
BBX 13 26 0 -6
BITMAP
00156900
2A994200
2A880200
60840200
8066A900
20240000
14080000
08150000
06920000
03024000
01808000
00902000
0022A000
00281800
00080900
26B90200
94220140
80154600
8016E800
56A98000
14048000
00148000
02A98000
05064000
05290000
01800000
ENDCHAR
STARTCHAR Scaron
ENCODING 352
SWIDTH 442 0
DWIDTH 12 0
BBX 13 28 0 -1
BITMAP
09926000
08210800
09282000
02085000
01458000
00870000
00690000
00156900
2A994200
2A880200
60840200
8066A900
20240000
14080000
08150000
06920000
03024000
01808000
00902000
0022A000
00281800
00080900
26B90200
94220140
80154600
8016E800
56A90000
14000000
ENDCHAR
STARTCHAR scaron
ENCODING 353
SWIDTH 442 0
DWIDTH 12 0
BBX 13 28 0 -1
BITMAP
09926000
08210800
09282000
02085000
01458000
00870000
00690000
00156900
2A994200
2A880200
60840200
8066A900
20240000
14080000
08150000
06920000
03024000
01808000
00902000
0022A000
00281800
00080900
26B90200
94220140
80154600
8016E800
56A90000
14000000
ENDCHAR
STARTCHAR Tcommaaccent
ENCODING 354
SWIDTH 453 0
DWIDTH 13 0
BBX 14 27 -1 -7
BITMAP
195A5580
20525560
60014020
20010020
26A9AA90
04212040
00202000
003A6000
00202000
00202000
00202000
00202000
00242000
00256000
00202000
00202000
00202000
00602000
00502000
002A9000
00000000
002A0000
00214000
00824000
01490000
02140000
01A00000
ENDCHAR
STARTCHAR tcommaaccent
ENCODING 355
SWIDTH 453 0
DWIDTH 13 0
BBX 14 27 -1 -7
BITMAP
195A5580
20525560
60014020
20010020
26A9AA90
04212040
00202000
003A6000
00202000
00202000
00202000
00202000
00242000
00256000
00202000
00202000
00202000
00602000
00502000
002A9000
00000000
002A0000
00214000
00824000
01490000
02140000
01A00000
ENDCHAR
STARTCHAR Tcaron
ENCODING 356
SWIDTH 453 0
DWIDTH 13 0
BBX 14 28 -1 0
BITMAP
00100000
01986900
02048200
00824600
00520800
0020A000
0020A000
000A8000
195A5580
20525560
60014020
20010020
26A9AA90
04212040
00202000
003A6000
00202000
00202000
00202000
00202000
00242000
00256000
00202000
00202000
00202000
00602000
00502000
002A9000
ENDCHAR
STARTCHAR tcaron
ENCODING 357
SWIDTH 453 0
DWIDTH 13 0
BBX 14 28 -1 0
BITMAP
00100000
01986900
02048200
00824600
00520800
0020A000
0020A000
000A8000
195A5580
20525560
60014020
20010020
26A9AA90
04212040
00202000
003A6000
00202000
00202000
00202000
00202000
00242000
00256000
00202000
00202000
00202000
00602000
00502000
002A9000
ENDCHAR
STARTCHAR Tbar
ENCODING 358
SWIDTH 455 0
DWIDTH 13 0
BBX 13 21 0 -1
BITMAP
14540100
965AA980
80050080
80040080
85555580
65958500
00808000
00948000
00958000
0AA5E400
20000800
20000800
24000800
0AEAA400
00808000
00808000
00808000
00808000
01408000
00968000
00150000
ENDCHAR
STARTCHAR tbar
ENCODING 359
SWIDTH 455 0
DWIDTH 13 0
BBX 13 21 0 -1
BITMAP
14540100
965AA980
80050080
80040080
85555580
65958500
00808000
00948000
00958000
0AA5E400
20000800
20000800
24000800
0AEAA400
00808000
00808000
00808000
00808000
01408000
00968000
00150000
ENDCHAR
STARTCHAR Utilde
ENCODING 360
SWIDTH 583 0
DWIDTH 16 0
BBX 16 28 0 -1
BITMAP
000A90A4
00187208
00209A08
00518920
01828250
00885280
00642B40
01900190
09181918
08081408
08080818
08080818
08140808
1A580958
24581908
14140808
14200808
24200808
20200808
2A940AA5
20200905
20200A98
202BA428
50214019
90208016
2A905AA2
086A96A8
06400000
ENDCHAR
STARTCHAR utilde
ENCODING 361
SWIDTH 583 0
DWIDTH 16 0
BBX 16 28 0 -1
BITMAP
000A90A4
00187208
00209A08
00518920
01828250
00885280
00642B40
01900190
09181918
08081408
08080818
08080818
08140808
1A580958
24581908
14140808
14200808
24200808
20200808
2A940AA5
20200905
20200A98
202BA428
50214019
90208016
2A905AA2
086A96A8
06400000
ENDCHAR
STARTCHAR Umacron
ENCODING 362
SWIDTH 583 0
DWIDTH 16 0
BBX 16 25 0 -1
BITMAP
00195900
00205200
00100200
002AAA00
01900190
09181918
08081408
08080818
08080818
08140808
1A580958
24581908
14140808
14200808
24200808
20200808
2A940AA5
20200905
20200A98
202BA428
50214019
90208016
2A905AA2
086A96A8
06400000
ENDCHAR
STARTCHAR umacron
ENCODING 363
SWIDTH 583 0
DWIDTH 16 0
BBX 16 25 0 -1
BITMAP
00195900
00205200
00100200
002AAA00
01900190
09181918
08081408
08080818
08080818
08140808
1A580958
24581908
14140808
14200808
24200808
20200808
2A940AA5
20200905
20200A98
202BA428
50214019
90208016
2A905AA2
086A96A8
06400000
ENDCHAR
STARTCHAR Ubreve
ENCODING 364
SWIDTH 583 0
DWIDTH 16 0
BBX 16 29 0 -1
BITMAP
00641900
01482180
00842080
00856600
00825A00
00990A00
001AA800
00000000
01900190
09181918
08081408
08080818
08080818
08140808
1A580958
24581908
14140808
14200808
24200808
20200808
2A940AA5
20200905
20200A98
202BA428
50214019
90208016
2A905AA2
086A96A8
06400000
ENDCHAR
STARTCHAR ubreve
ENCODING 365
SWIDTH 583 0
DWIDTH 16 0
BBX 16 29 0 -1
BITMAP
00641900
01482180
00842080
00856600
00825A00
00990A00
001AA800
00000000
01900190
09181918
08081408
08080818
08080818
08140808
1A580958
24581908
14140808
14200808
24200808
20200808
2A940AA5
20200905
20200A98
202BA428
50214019
90208016
2A905AA2
086A96A8
06400000
ENDCHAR
STARTCHAR Uring
ENCODING 366
SWIDTH 583 0
DWIDTH 16 0
BBX 16 29 0 -1
BITMAP
000AA800
00148800
00208200
00825140
0086A140
00641A00
00500200
00296900
01900190
09181918
08081408
08080818
08080818
08140808
1A580958
24581908
14140808
14200808
24200808
20200808
2A940AA5
20200905
20200A98
202BA428
50214019
90208016
2A905AA2
086A96A8
06400000
ENDCHAR
STARTCHAR uring
ENCODING 367
SWIDTH 583 0
DWIDTH 16 0
BBX 16 29 0 -1
BITMAP
000AA800
00148800
00208200
00825140
0086A140
00641A00
00500200
00296900
01900190
09181918
08081408
08080818
08080818
08140808
1A580958
24581908
14140808
14200808
24200808
20200808
2A940AA5
20200905
20200A98
202BA428
50214019
90208016
2A905AA2
086A96A8
06400000
ENDCHAR
STARTCHAR Uhungarumlaut
ENCODING 368
SWIDTH 583 0
DWIDTH 16 0
BBX 16 28 0 -1
BITMAP
000291A0
00052214
00082924
00209850
00522180
00291A00
00000000
01900190
09181918
08081408
08080818
08080818
08140808
1A580958
24581908
14140808
14200808
24200808
20200808
2A940AA5
20200905
20200A98
202BA428
50214019
90208016
2A905AA2
086A96A8
06400000
ENDCHAR
STARTCHAR uhungarumlaut
ENCODING 369
SWIDTH 583 0
DWIDTH 16 0
BBX 16 28 0 -1
BITMAP
000291A0
00052214
00082924
00209850
00522180
00291A00
00000000
01900190
09181918
08081408
08080818
08080818
08140808
1A580958
24581908
14140808
14200808
24200808
20200808
2A940AA5
20200905
20200A98
202BA428
50214019
90208016
2A905AA2
086A96A8
06400000
ENDCHAR
STARTCHAR Uogonek
ENCODING 370
SWIDTH 583 0
DWIDTH 16 0
BBX 16 27 0 -7
BITMAP
01900190
09181918
08081408
08080818
08080818
08140808
1A580958
24581908
14140808
14200808
24200808
20200808
2A940AA5
20200905
20200A98
202BA428
50214019
90208016
2A905AA2
086A97A8
06400520
00000850
000014A0
00000A59
00000242
00000095
00000014
ENDCHAR
STARTCHAR uogonek
ENCODING 371
SWIDTH 583 0
DWIDTH 16 0
BBX 16 27 0 -7
BITMAP
01900190
09181918
08081408
08080818
08080818
08140808
1A580958
24581908
14140808
14200808
24200808
20200808
2A940AA5
20200905
20200A98
202BA428
50214019
90208016
2A905AA2
086A97A8
06400520
00000850
000014A0
00000A59
00000242
00000095
00000014
ENDCHAR
STARTCHAR Wcircumflex
ENCODING 372
SWIDTH 735 0
DWIDTH 21 0
BBX 21 27 0 -1
BITMAP
00006A000000
000083400000
000146800000
000208600000
000829140000
000852140000
000682A00000
2A800002A900
90802A420240
808090820200
5090C0820200
205190850500
202260590500
2A56666E9500
241624280800
141614280800
080A08181400
080908141400
090A9AB51400
069809259400
02081A202000
020816202000
015422605000
016022905000
016420805000
019B90659000
005400154000
ENDCHAR
STARTCHAR wcircumflex
ENCODING 373
SWIDTH 735 0
DWIDTH 21 0
BBX 21 27 0 -1
BITMAP
00006A000000
000083400000
000146800000
000208600000
000829140000
000852140000
000682A00000
2A800002A900
90802A420240
808090820200
5090C0820200
205190850500
202260590500
2A56666E9500
241624280800
141614280800
080A08181400
080908141400
090A9AB51400
069809259400
02081A202000
020816202000
015422605000
016022905000
016420805000
019B90659000
005400154000
ENDCHAR
STARTCHAR Ycircumflex
ENCODING 374
SWIDTH 484 0
DWIDTH 14 0
BBX 16 27 -1 0
BITMAP
000A9000
00147000
00209400
00824800
01468200
01488200
00A42900
00000000
0A800AA0
20800808
90600809
60141414
18056020
0516E450
02918550
01814080
00920240
00260200
000D0500
00099800
00141800
00202400
00502000
01809000
01408000
00908000
001A4000
ENDCHAR
STARTCHAR ycircumflex
ENCODING 375
SWIDTH 484 0
DWIDTH 14 0
BBX 16 27 -1 0
BITMAP
000A9000
00147000
00209400
00824800
01468200
01488200
00A42900
00000000
0A800AA0
20800808
90600809
60141414
18056020
0516E450
02918550
01814080
00920240
00260200
000D0500
00099800
00141800
00202400
00502000
01809000
01408000
00908000
001A4000
ENDCHAR
STARTCHAR Ydieresis
ENCODING 376
SWIDTH 484 0
DWIDTH 14 0
BBX 16 25 -1 0
BITMAP
00140400
0259A640
02058140
01444100
01A86A00
00000000
0A800AA0
20800808
90600809
60141414
18056020
0516E450
02918550
01814080
00920240
00260200
000D0500
00099800
00141800
00202400
00502000
01809000
01408000
00908000
001A4000
ENDCHAR
STARTCHAR Zacute
ENCODING 377
SWIDTH 458 0
DWIDTH 13 0
BBX 14 26 -1 0
BITMAP
00006800
00008200
00014500
00061400
00082000
00068000
01010100
0566A980
08010080
080100A0
051569A0
02964180
00074200
00099200
00181500
00201800
00502000
00C05000
02648000
02058000
09020100
180BAA40
60190080
20210080
19255580
02965600
ENDCHAR
STARTCHAR zacute
ENCODING 378
SWIDTH 458 0
DWIDTH 13 0
BBX 14 26 -1 0
BITMAP
00006800
00008200
00014500
00061400
00082000
00068000
01010100
0566A980
08010080
080100A0
051569A0
02964180
00074200
00099200
00181500
00201800
00502000
00C05000
02648000
02058000
09020100
180BAA40
60190080
20210080
19255580
02965600
ENDCHAR
STARTCHAR Zdotaccent
ENCODING 379
SWIDTH 458 0
DWIDTH 13 0
BBX 14 26 -1 0
BITMAP
00014000
00196000
00142000
00081000
000A9000
00000000
01010100
0566A980
08010080
080100A0
051569A0
02964180
00074200
00099200
00181500
00201800
00502000
00C05000
02648000
02058000
09020100
180BAA40
60190080
20210080
19255580
02965600
ENDCHAR
STARTCHAR zdotaccent
ENCODING 380
SWIDTH 458 0
DWIDTH 13 0
BBX 14 26 -1 0
BITMAP
00014000
00196000
00142000
00081000
000A9000
00000000
01010100
0566A980
08010080
080100A0
051569A0
02964180
00074200
00099200
00181500
00201800
00502000
00C05000
02648000
02058000
09020100
180BAA40
60190080
20210080
19255580
02965600
ENDCHAR
STARTCHAR Zcaron
ENCODING 381
SWIDTH 458 0
DWIDTH 13 0
BBX 14 28 -1 0
BITMAP
00100000
01986900
02088200
00864500
00520800
0020A000
0020A000
000A8000
01010100
0566A980
08010080
080100A0
051569A0
02964180
00074200
00099200
00181500
00201800
00502000
00C05000
02648000
02058000
09020100
180BAA40
60190080
20210080
19255580
02965600
ENDCHAR
STARTCHAR zcaron
ENCODING 382
SWIDTH 458 0
DWIDTH 13 0
BBX 14 28 -1 0
BITMAP
00100000
01986900
02088200
00864500
00520800
0020A000
0020A000
000A8000
01010100
0566A980
08010080
080100A0
051569A0
02964180
00074200
00099200
00181500
00201800
00502000
00C05000
02648000
02058000
09020100
180BAA40
60190080
20210080
19255580
02965600
ENDCHAR
STARTCHAR AEacute
ENCODING 508
SWIDTH 797 0
DWIDTH 22 0
BBX 24 27 -1 0
BITMAP
0000000A4000
000000208000
000000618000
000000860000
000002480000
000000A40000
000000000000
000000A41014
0000AA46AA98
000086421405
000140821405
000201425558
000503026554
001D0AA60000
00258E020000
00201603AA40
005022020080
008082020080
024096025140
02A157A65A00
050602020000
080502025000
140EAA026AA4
602402022008
502005022008
242005025508
069002A955A0
ENDCHAR
STARTCHAR aeacute
ENCODING 509
SWIDTH 797 0
DWIDTH 22 0
BBX 24 27 -1 0
BITMAP
0000000A4000
000000208000
000000618000
000000860000
000002480000
000000A40000
000000000000
000000A41014
0000AA46AA98
000086421405
000140821405
000201425558
000503026554
001D0AA60000
00258E020000
00201603AA40
005022020080
008082020080
024096025140
02A157A65A00
050602020000
080502025000
140EAA026AA4
602402022008
502005022008
242005025508
069002A955A0
ENDCHAR
STARTCHAR Oslashacute
ENCODING 510
SWIDTH 612 0
DWIDTH 17 0
BBX 17 27 0 -1
BITMAP
00000A4000
0000248000
0000218000
0000820000
0001480000
0000A40000
0295404000
0815AAA800
0800820600
0800850200
0965480900
0949B42900
0D48A02600
1958999600
0809418600
0816020600
1419060200
24180A0200
26B822A640
2056220200
2080526600
2141EA4B00
9602500740
5809500680
240816AA40
081AA46400
06A0000000
ENDCHAR
STARTCHAR oslashacute
ENCODING 511
SWIDTH 612 0
DWIDTH 17 0
BBX 17 27 0 -1
BITMAP
00000A4000
0000248000
0000218000
0000820000
0001480000
0000A40000
0295404000
0815AAA800
0800820600
0800850200
0965480900
0949B42900
0D48A02600
1958999600
0809418600
0816020600
1419060200
24180A0200
26B822A640
2056220200
2080526600
2141EA4B00
9602500740
5809500680
240816AA40
081AA46400
06A0000000
ENDCHAR
STARTCHAR dotlessj
ENCODING 567
SWIDTH 482 0
DWIDTH 14 0
BBX 14 21 -1 -1
BITMAP
00001A40
00006060
00005020
00002050
00002050
00005050
0000A950
00009050
00005050
01005080
1A805080
20505050
5024AA60
24099050
09169090
0290D080
01806080
00901850
00240850
00082A80
00069000
ENDCHAR
STARTCHAR circumflex
ENCODING 710
SWIDTH 308 0
DWIDTH 9 0
BBX 9 7 0 21
BITMAP
06A000
083400
146800
208600
829140
852140
681A00
ENDCHAR
STARTCHAR caron
ENCODING 711
SWIDTH 310 0
DWIDTH 9 0
BBX 9 8 0 21
BITMAP
000400
692600
822080
518240
208500
145800
087400
06A000
ENDCHAR
STARTCHAR breve
ENCODING 728
SWIDTH 333 0
DWIDTH 9 0
BBX 9 7 0 21
BITMAP
290600
821480
821480
526880
525640
260300
0AA900
ENDCHAR
STARTCHAR dotaccent
ENCODING 729
SWIDTH 166 0
DWIDTH 5 0
BBX 5 5 0 21
BITMAP
0500
9580
8140
5140
6A00
ENDCHAR
STARTCHAR ring
ENCODING 730
SWIDTH 309 0
DWIDTH 9 0
BBX 9 8 0 21
BITMAP
0AA800
145500
209200
826140
87B080
681B00
500200
296900
ENDCHAR
STARTCHAR ogonek
ENCODING 731
SWIDTH 226 0
DWIDTH 6 0
BBX 7 9 0 -7
BITMAP
1A40
2080
2140
5200
8340
78A0
1814
0620
0180
ENDCHAR
STARTCHAR tilde
ENCODING 732
SWIDTH 410 0
DWIDTH 11 0
BBX 12 7 0 21
BITMAP
06A0A8
083545
146A08
608614
829160
8521D0
682A80
ENDCHAR
STARTCHAR hungarumlaut
ENCODING 733
SWIDTH 361 0
DWIDTH 10 0
BBX 10 6 0 21
BITMAP
068290
085520
249860
516080
865200
682900
ENDCHAR
STARTCHAR uni0312
ENCODING 786
SWIDTH 202 0
DWIDTH 6 0
BBX 6 7 0 13
BITMAP
0640
0890
1460
2080
8200
9900
1400
ENDCHAR
STARTCHAR uni0315
ENCODING 789
SWIDTH 202 0
DWIDTH 6 0
BBX 6 7 0 13
BITMAP
0640
0890
1460
2080
8200
9900
1400
ENDCHAR
STARTCHAR uni0326
ENCODING 806
SWIDTH 201 0
DWIDTH 6 0
BBX 6 6 0 -7
BITMAP
0680
0850
2490
5140
8600
6800
ENDCHAR
STARTCHAR Wgrave
ENCODING 7808
SWIDTH 735 0
DWIDTH 21 0
BBX 21 27 0 -1
BITMAP
000010000000
0001A4000000
000208000000
000208000000
000085000000
000052000000
000029000000
2A800002A900
90802A420240
808090820200
5090C0820200
205190850500
202260590500
2A56666E9500
241624280800
141614280800
080A08181400
080908141400
090A9AB51400
069809259400
02081A202000
020816202000
015422605000
016022905000
016420805000
019B90659000
005400154000
ENDCHAR
STARTCHAR wgrave
ENCODING 7809
SWIDTH 735 0
DWIDTH 21 0
BBX 21 27 0 -1
BITMAP
000010000000
0001A4000000
000208000000
000208000000
000085000000
000052000000
000029000000
2A800002A900
90802A420240
808090820200
5090C0820200
205190850500
202260590500
2A56666E9500
241624280800
141614280800
080A08181400
080908141400
090A9AB51400
069809259400
02081A202000
020816202000
015422605000
016022905000
016420805000
019B90659000
005400154000
ENDCHAR
STARTCHAR Wacute
ENCODING 7810
SWIDTH 735 0
DWIDTH 21 0
BBX 21 26 0 -1
BITMAP
000001A00000
000002080000
000005140000
000018500000
000020800000
00001A000000
2A800002A900
90802A420240
808090820200
5090C0820200
205190850500
202260590500
2A56666E9500
241624280800
141614280800
080A08181400
080908141400
090A9AB51400
069809259400
02081A202000
020816202000
015422605000
016022905000
016420805000
019B90659000
005400154000
ENDCHAR
STARTCHAR wacute
ENCODING 7811
SWIDTH 735 0
DWIDTH 21 0
BBX 21 26 0 -1
BITMAP
000001A00000
000002080000
000005140000
000018500000
000020800000
00001A000000
2A800002A900
90802A420240
808090820200
5090C0820200
205190850500
202260590500
2A56666E9500
241624280800
141614280800
080A08181400
080908141400
090A9AB51400
069809259400
02081A202000
020816202000
015422605000
016022905000
016420805000
019B90659000
005400154000
ENDCHAR
STARTCHAR Wdieresis
ENCODING 7812
SWIDTH 735 0
DWIDTH 21 0
BBX 21 25 0 -1
BITMAP
000140500000
001962580000
001422080000
000822080000
000A92A40000
2A800002A900
90802A420240
808090820200
5090C0820200
205190850500
202260590500
2A56666E9500
241624280800
141614280800
080A08181400
080908141400
090A9AB51400
069809259400
02081A202000
020816202000
015422605000
016022905000
016420805000
019B90659000
005400154000
ENDCHAR
STARTCHAR wdieresis
ENCODING 7813
SWIDTH 735 0
DWIDTH 21 0
BBX 21 25 0 -1
BITMAP
000140500000
001962580000
001422080000
000822080000
000A92A40000
2A800002A900
90802A420240
808090820200
5090C0820200
205190850500
202260590500
2A56666E9500
241624280800
141614280800
080A08181400
080908141400
090A9AB51400
069809259400
02081A202000
020816202000
015422605000
016022905000
016420805000
019B90659000
005400154000
ENDCHAR
STARTCHAR Ygrave
ENCODING 7922
SWIDTH 484 0
DWIDTH 14 0
BBX 16 27 -1 0
BITMAP
00010000
002A0000
00810000
00614000
00148000
00085000
00068000
00000000
0A800AA0
20800808
90600809
60141414
18056020
0516E450
02918550
01814080
00920240
00260200
000D0500
00099800
00141800
00202400
00502000
01809000
01408000
00908000
001A4000
ENDCHAR
STARTCHAR ygrave
ENCODING 7923
SWIDTH 484 0
DWIDTH 14 0
BBX 16 27 -1 0
BITMAP
00010000
002A0000
00810000
00614000
00148000
00085000
00068000
00000000
0A800AA0
20800808
90600809
60141414
18056020
0516E450
02918550
01814080
00920240
00260200
000D0500
00099800
00141800
00202400
00502000
01809000
01408000
00908000
001A4000
ENDCHAR
STARTCHAR endash
ENCODING 8211
SWIDTH 591 0
DWIDTH 17 0
BBX 16 5 0 7
BITMAP
2AAAAA58
50080852
50080402
20040402
2AAAAAA9
ENDCHAR
STARTCHAR emdash
ENCODING 8212
SWIDTH 726 0
DWIDTH 20 0
BBX 20 5 0 7
BITMAP
2A9A95A554
2012552555
5002002002
2001001006
2AAAAAAAA8
ENDCHAR
STARTCHAR quoteleft
ENCODING 8216
SWIDTH 291 0
DWIDTH 8 0
BBX 8 12 0 9
BITMAP
0194
0259
0202
0606
0808
1A88
1418
2020
5020
8050
6090
1A40
ENDCHAR
STARTCHAR quoteright
ENCODING 8217
SWIDTH 291 0
DWIDTH 8 0
BBX 8 12 0 9
BITMAP
0194
0259
0202
0606
0808
1A88
1418
2020
5020
8050
6090
1A40
ENDCHAR
STARTCHAR quotesinglbase
ENCODING 8218
SWIDTH 228 0
DWIDTH 6 0
BBX 7 8 -1 -4
BITMAP
0290
0524
0808
2418
9060
8080
6140
1A00
ENDCHAR
STARTCHAR quotedblleft
ENCODING 8220
SWIDTH 532 0
DWIDTH 15 0
BBX 15 12 0 9
BITMAP
01940640
02590964
02020808
06061414
08086020
1A88AA50
14188050
20208080
50220140
80520200
60924200
1A406900
ENDCHAR
STARTCHAR quotedblright
ENCODING 8221
SWIDTH 532 0
DWIDTH 15 0
BBX 15 12 0 9
BITMAP
01940640
02590964
02020808
06061414
08086020
1A88AA50
14188050
20208080
50220140
80520200
60924200
1A406900
ENDCHAR
STARTCHAR quotedblbase
ENCODING 8222
SWIDTH 448 0
DWIDTH 13 0
BBX 13 8 -1 -4
BITMAP
02901900
05242180
08088080
24194080
90650200
80840800
61421400
1A00A000
ENDCHAR
STARTCHAR dagger
ENCODING 8224
SWIDTH 453 0
DWIDTH 13 0
BBX 12 24 0 -2
BITMAP
001500
00A680
008080
008080
008080
2AC0E9
508082
509482
51D582
2A80A9
008080
008080
008080
008080
00E580
009580
008080
008080
008180
008080
014080
014080
00A640
001400
ENDCHAR
STARTCHAR daggerdbl
ENCODING 8225
SWIDTH 462 0
DWIDTH 13 0
BBX 13 24 0 -2
BITMAP
00050000
00A68000
00805000
00808000
00808000
2AC0AA00
60808200
50948140
60D58200
2A80AA00
00808000
00808000
00808000
00808000
15E98400
2595A600
50808140
50808140
21809200
19809900
00808000
01408000
00A68000
00140000
ENDCHAR
STARTCHAR bullet
ENCODING 8226
SWIDTH 275 0
DWIDTH 8 0
BBX 5 5 1 8
BITMAP
1500
6180
1080
2080
2A40
ENDCHAR
STARTCHAR ellipsis
ENCODING 8230
SWIDTH 605 0
DWIDTH 17 0
BBX 17 5 0 -1
BITMAP
2A86A4AA00
5088088140
2084148200
2585649600
0501501400
ENDCHAR
STARTCHAR perthousand
ENCODING 8240
SWIDTH 1249 0
DWIDTH 35 0
BBX 35 20 0 0
BITMAP
040000000000000000
155640680000000000
2A0090824000000000
109160810000000000
115920820000000000
114421410000000000
114422050000000000
164822950000000000
585822080000000000
64082108A5640A5540
195A851590091A0090
01010812080A208094
0000095109A5109A50
000008610852108510
000004210852108520
000014510442104510
000020425981159810
000010828081680414
00002581806A1806A0
000005006558025580
ENDCHAR
STARTCHAR guilsinglleft
ENCODING 8249
SWIDTH 359 0
DWIDTH 10 0
BBX 9 13 0 3
BITMAP
001A40
006080
024080
280180
500900
602000
74A000
560900
280280
024080
009080
002640
000400
ENDCHAR
STARTCHAR guilsinglright
ENCODING 8250
SWIDTH 359 0
DWIDTH 10 0
BBX 9 13 1 3
BITMAP
290000
814000
806000
900A00
180140
024140
029740
082540
A00A00
806400
818000
260000
040000
ENDCHAR
STARTCHAR fraction
ENCODING 8260
SWIDTH 266 0
DWIDTH 7 0
BBX 8 19 0 0
BITMAP
01A4
0205
0205
0208
0208
0504
0A54
0810
0820
0410
1450
2550
2190
2080
5040
8140
8140
9600
0400
ENDCHAR
STARTCHAR Euro
ENCODING 8364
SWIDTH 690 0
DWIDTH 19 0
BBX 19 21 0 -1
BITMAP
0002954000
000815AAA0
0008008020
0008008014
0009654020
015949AAA0
066D480000
0519580000
0508080000
0268140000
1954140000
6174140000
5026940000
5020200000
26A0200190
00202AA920
0090208014
0090208014
002E8056A0
00086A9400
0006400000
ENDCHAR
STARTCHAR partialdiff
ENCODING 8706
SWIDTH 519 0
DWIDTH 15 0
BBX 16 21 -1 -1
BITMAP
00006400
00025600
00050200
00020200
00020200
00014140
00015AC0
00019080
00068080
00649080
01C05050
06506020
6425A6B0
509A2420
225D1414
1A02A818
05001808
06400805
00680809
00024AA4
00006400
ENDCHAR
STARTCHAR minus
ENCODING 8722
SWIDTH 467 0
DWIDTH 13 0
BBX 13 6 0 6
BITMAP
1AAA5900
20055200
50010140
20050140
26AAAA00
04000000
ENDCHAR
STARTCHAR fi
ENCODING 64257
SWIDTH 741 0
DWIDTH 21 0
BBX 19 20 1 0
BITMAP
1A45050690
90AAA65818
5052008808
5082008814
5095564814
509A551814
A950001A98
9150002418
80AAA01414
9080201814
5080201814
8094201414
A966901A98
8050001414
8080001414
8080001414
8080001414
8080002014
8050002018
6A80001AA0
ENDCHAR
STARTCHAR fl
ENCODING 64258
SWIDTH 942 0
DWIDTH 26 0
BBX 26 20 1 0
BITMAP
1A450506900000
90AAA658180000
50520088080000
50820088140000
50955648140000
509A5518140000
A950001A980000
91500024180000
80AAA014140000
90802018140000
50802018140000
80942014140000
A966901A980000
80500014140000
80800014150000
808000141BAA90
80800014160020
80800020160020
80500020191020
6A80001AAA9690
ENDCHAR
STARTCHAR .notdef
ENCODING -1
SWIDTH 200 0
DWIDTH 6 0
BBX 1 1 0 0
BITMAP
00
ENDCHAR
STARTCHAR .null
ENCODING -1
SWIDTH 0 0
DWIDTH 0 0
BBX 1 1 0 0
BITMAP
00
ENDCHAR
STARTCHAR nonmarkingreturn
ENCODING -1
SWIDTH 200 0
DWIDTH 6 0
BBX 1 1 0 0
BITMAP
00
ENDCHAR
ENDFONT
